<?xml version="1.0" standalone="no"?>
<!DOCTYPE svg PUBLIC "-//W3C//DTD SVG 1.1//EN" "http://www.w3.org/Graphics/SVG/1.1/DTD/svg11.dtd" >
<svg xmlns="http://www.w3.org/2000/svg" xmlns:xlink="http://www.w3.org/1999/xlink" version="1.1">
<metadata></metadata>
<defs>
<font id="noway_roundregular" horiz-adv-x="1013" >
<font-face units-per-em="2048" ascent="1536" descent="-512" />
<missing-glyph horiz-adv-x="536" />
<glyph unicode="&#x2e;&#x2e;&#x2e;" horiz-adv-x="1519" d="M98 115q0 55 37.5 93t93.5 38t93.5 -38t37.5 -93t-37.5 -93t-93.5 -38t-93.5 38t-37.5 93zM629 115q0 55 37.5 93t93.5 38t93.5 -38t37.5 -93t-37.5 -93t-93.5 -38t-93.5 38t-37.5 93zM1159 115q0 55 37.5 93t93.5 38t93.5 -38t37.5 -93t-37.5 -93t-93.5 -38t-93.5 38 t-37.5 93z" />
<glyph horiz-adv-x="0" />
<glyph horiz-adv-x="0" />
<glyph horiz-adv-x="682" />
<glyph unicode="&#xd;" horiz-adv-x="534" />
<glyph unicode=" "  horiz-adv-x="536" />
<glyph unicode="&#x09;" horiz-adv-x="536" />
<glyph unicode="&#xa0;" horiz-adv-x="536" />
<glyph unicode="!" horiz-adv-x="458" d="M98 115q0 55 37.5 93t93.5 38t93.5 -38t37.5 -93t-37.5 -93t-93.5 -38t-93.5 38t-37.5 93zM139 1362q-1 36 25 62t63 26q39 0 65 -25t25 -63l-26 -903q0 -26 -19 -45t-45 -19t-44.5 19t-18.5 45z" />
<glyph unicode="&#x22;" horiz-adv-x="655" d="M88 1366q-2 34 22 59t60 25q39 0 61.5 -24.5t20.5 -59.5l-12 -362q-1 -33 -21 -51.5t-49 -18.5t-49.5 19t-20.5 51zM401 1366q-2 34 22 59t60 25q39 0 61.5 -24.5t20.5 -59.5l-12 -362q-1 -33 -21 -51.5t-49 -18.5t-49 19t-20 51z" />
<glyph unicode="#" horiz-adv-x="1081" d="M41 545q0 26 19.5 45.5t45.5 19.5h162l41 217h-145q-26 0 -46 20t-20 46t20 45.5t46 19.5h170l45 248q5 26 22 43t43 17q29 0 47.5 -19t12.5 -49l-45 -240h237l45 248q5 26 22 43t44 17q29 0 47 -19t12 -49l-45 -240h156q26 0 45.5 -19.5t19.5 -45.5t-19.5 -46t-45.5 -20 h-178l-41 -217h162q26 0 45.5 -19.5t19.5 -45.5t-19.5 -46t-45.5 -20h-187l-45 -254q-5 -25 -22 -41t-41 -16q-27 0 -44.5 18t-17.5 43q0 11 2 21l41 229h-235l-45 -254q-5 -25 -22.5 -41t-41.5 -16q-27 0 -44 18t-17 43q0 11 2 21l41 229h-138q-26 0 -45.5 20t-19.5 46z M395 610h236l41 217h-236z" />
<glyph unicode="$" horiz-adv-x="1081" d="M98 158q0 34 24 58t58 24q17 0 51 -17q150 -73 289 -73q150 0 216.5 66.5t66.5 178.5q0 70 -23.5 121.5t-63 81.5t-91 52t-108.5 38t-114 33t-108.5 43t-91 62.5t-63 97.5t-23.5 143q0 168 89 266t257 113v90q0 33 21 52.5t51 19.5t50.5 -19.5t20.5 -52.5v-90 q145 -15 266 -92q39 -24 39 -70q0 -31 -23.5 -53.5t-56.5 -22.5q-17 0 -51 17q-126 63 -250 63q-72 0 -122 -17.5t-75.5 -49.5t-35.5 -68.5t-10 -83.5q0 -52 23.5 -90.5t63 -62t91 -42t108.5 -35.5t114 -37t108.5 -51.5t91 -74t63 -110.5t23.5 -156q0 -82 -21 -152t-64 -127 t-114.5 -94.5t-167.5 -48.5v-129q0 -33 -20.5 -52.5t-50.5 -19.5t-51 19.5t-21 52.5v127q-186 17 -326 100q-39 24 -39 72z" />
<glyph unicode="%" horiz-adv-x="1591" d="M113 965v196q0 141 73 215t205 74t205.5 -74t73.5 -215v-196q0 -138 -73.5 -211.5t-205.5 -73.5t-205 73.5t-73 211.5zM260 963q0 -67 27.5 -103.5t103.5 -36.5t103.5 36.5t27.5 103.5v200q0 72 -30 108t-101 36t-101 -36t-30 -108v-200zM453 2q0 11 4 27l530 1427 q8 24 28 38.5t46 14.5q32 0 55 -22.5t23 -54.5q0 -14 -9 -37l-528 -1424q-9 -21 -29 -34t-43 -13q-32 0 -54.5 23t-22.5 55zM922 268v197q0 141 73 215t205 74t205.5 -74t73.5 -215v-197q0 -138 -73.5 -211t-205.5 -73t-205 73t-73 211zM1069 266q0 -67 27.5 -103t103.5 -36 t103.5 36t27.5 103v201q0 72 -30 107.5t-101 35.5t-101 -35.5t-30 -107.5v-201z" />
<glyph unicode="&#x26;" horiz-adv-x="1284" d="M104 371q0 68 12.5 123.5t42.5 109t86 96t138 72.5l-64 76q-110 128 -110 270q0 149 106 240.5t269 91.5q157 0 288 -70q48 -23 48 -73q0 -32 -24 -56t-58 -24q-15 0 -43 12q-107 47 -211 47q-94 0 -149.5 -45.5t-55.5 -122.5q0 -45 19.5 -88t70.5 -102l449 -518 q56 86 88 286q5 30 25 50t52 20q33 0 57 -22.5t21 -55.5q-24 -235 -137 -407l139 -158q25 -29 25 -60q0 -34 -23.5 -56.5t-58.5 -22.5q-39 0 -66 30l-108 131q-70 -82 -160.5 -121.5t-234.5 -39.5q-191 0 -312 102.5t-121 284.5zM274 387q0 -115 68.5 -180.5t196.5 -65.5 q119 0 187 33.5t110 87.5l-353 397q-64 -18 -107.5 -48t-64.5 -68.5t-29 -74.5t-8 -81z" />
<glyph unicode="'" horiz-adv-x="339" d="M88 1366q-2 34 22 59t60 25q39 0 61.5 -24.5t20.5 -59.5l-12 -362q-1 -33 -21 -51.5t-49 -18.5t-49.5 19t-20.5 51z" />
<glyph unicode="(" horiz-adv-x="657" d="M133 637q0 243 83 473.5t243 425.5q23 29 55 29q29 0 50.5 -21.5t21.5 -50.5q0 -25 -17 -45q-133 -179 -196.5 -387t-63.5 -424t63.5 -424t196.5 -387q17 -20 17 -45q0 -29 -21.5 -50.5t-50.5 -21.5q-32 0 -55 29q-160 195 -243 425.5t-83 473.5z" />
<glyph unicode=")" horiz-adv-x="657" d="M72 -219q0 26 16 45q133 179 196.5 387t63.5 424t-63.5 424t-196.5 387q-16 19 -16 45q0 29 21 50.5t50 21.5q33 0 56 -29q160 -195 242.5 -425t82.5 -474t-82.5 -474t-242.5 -425q-23 -29 -56 -29q-29 0 -50 21.5t-21 50.5z" />
<glyph unicode="*" horiz-adv-x="888" d="M94 1276q0 32 22.5 55t53.5 23q17 0 47 -15l182 -94l-28 228q-6 39 17 59t56 20q34 0 57 -20t17 -59l-29 -228l183 94q30 15 47 15q31 0 53.5 -23t22.5 -55q0 -27 -16 -47.5t-42 -26.5l-227 -51l174 -174q29 -29 29 -62q0 -31 -22.5 -53t-53.5 -22q-45 0 -70 43l-123 211 l-122 -211q-25 -43 -70 -43q-31 0 -53.5 22t-22.5 53q0 33 29 62l174 174l-227 51q-26 6 -42 26.5t-16 47.5z" />
<glyph unicode="+" d="M20 606q0 31 21.5 52.5t52.5 21.5h340v352q0 31 21.5 52.5t52.5 21.5t52.5 -21.5t21.5 -52.5v-352h338q31 0 52 -21.5t21 -52.5t-22.5 -52.5t-57.5 -21.5h-331v-350q0 -31 -21.5 -52t-52.5 -21t-52.5 21t-21.5 52v350h-340q-31 0 -52.5 21.5t-21.5 52.5z" />
<glyph unicode="," horiz-adv-x="458" d="M88 -260q0 12 2 18l86 416q6 31 31.5 51.5t60.5 20.5q41 0 67.5 -27.5t26.5 -66.5q0 -15 -8 -39l-114 -389q-8 -26 -28.5 -43t-47.5 -17q-31 0 -53.5 22.5t-22.5 53.5z" />
<glyph unicode="-" horiz-adv-x="661" d="M72 616q0 31 22 53.5t53 22.5h367q31 0 53.5 -22.5t22.5 -53.5t-22.5 -53t-53.5 -22h-367q-31 0 -53 22t-22 53z" />
<glyph unicode="." horiz-adv-x="458" d="M98 115q0 55 37.5 93t93.5 38t93.5 -38t37.5 -93t-37.5 -93t-93.5 -38t-93.5 38t-37.5 93z" />
<glyph unicode="/" horiz-adv-x="612" d="M-14 -102q0 12 4 26l485 1626q8 27 28 44.5t48 17.5q32 0 55 -23t23 -55q0 -9 -4 -25l-488 -1628q-18 -59 -76 -59q-31 0 -53 22.5t-22 53.5z" />
<glyph unicode="0" horiz-adv-x="1146" d="M123 500v434q0 232 118.5 374t331.5 142t332 -142t119 -374v-434q0 -232 -119 -374t-332 -142t-331.5 142t-118.5 374zM297 510q0 -174 69 -267t207 -93q139 0 208 93t69 267v414q0 174 -69 267t-208 93q-138 0 -207 -93t-69 -267v-414z" />
<glyph unicode="1" d="M102 1204q0 55 56 76l401 145q24 9 41 9q34 0 60 -23.5t26 -56.5v-1194h197q34 0 57 -23t23 -57t-23 -57t-57 -23h-660q-34 0 -57 23t-23 57t23 57t57 23h289v1085l-293 -110q-24 -9 -39 -9q-32 0 -55 23t-23 55z" />
<glyph unicode="2" horiz-adv-x="1067" d="M113 84v59q0 81 37 161t95.5 146t129.5 130.5t142.5 124t130 115t95.5 115t37 114.5q0 123 -71.5 179t-196.5 56q-114 0 -266 -67q-25 -11 -47 -11q-34 0 -57 22t-23 56q0 49 53 76q164 90 342 90q203 0 321.5 -102t118.5 -287q0 -81 -36.5 -157.5t-94.5 -137.5 t-128.5 -120t-140.5 -114.5t-128 -110.5t-94.5 -120t-36.5 -131h586q35 0 60.5 -25.5t25.5 -60.5q0 -34 -25.5 -59t-60.5 -25h-684q-34 0 -59 25t-25 59z" />
<glyph unicode="3" horiz-adv-x="1071" d="M82 147q0 34 23 57t55 23q19 0 47 -14q136 -63 276 -63q94 0 157.5 21t94 60.5t42 81.5t11.5 99q0 241 -290 241h-146q-32 0 -55 23t-23 55t23 55t55 23h146q68 0 122.5 22t91 76t36.5 133q0 119 -64.5 181.5t-194.5 62.5q-121 0 -256 -63q-22 -11 -36 -11 q-33 0 -55.5 21t-22.5 53q0 47 49 74q164 92 324 92q209 0 319.5 -102.5t110.5 -280.5q0 -239 -172 -315q97 -30 152.5 -123t55.5 -219q0 -86 -25 -159.5t-78 -135t-147.5 -96.5t-222.5 -35q-182 0 -358 92q-45 20 -45 71z" />
<glyph unicode="4" horiz-adv-x="1167" d="M78 371q0 17 6 32l422 983q27 64 84 64q35 0 60.5 -25.5t25.5 -60.5q0 -18 -6 -33l-389 -880h415v370q0 37 25.5 62.5t60.5 25.5q37 0 62.5 -25.5t25.5 -62.5v-370h166q34 0 57 -23t23 -57t-23 -57t-57 -23h-166v-221q0 -35 -25.5 -60.5t-62.5 -25.5q-35 0 -60.5 25.5 t-25.5 60.5v221h-538q-34 0 -57 23t-23 57z" />
<glyph unicode="5" horiz-adv-x="1101" d="M102 162q0 34 23 57t55 23q17 0 35 -9q166 -83 299 -83q76 0 132 17.5t88.5 45t52 67.5t26 77.5t6.5 82.5q0 133 -70 214t-221 81q-71 0 -121 -13.5t-106 -41.5q-48 -23 -65 -23q-33 0 -54.5 22.5t-21.5 53.5l37 615q0 35 25 60.5t59 25.5h546q35 0 60.5 -25.5 t25.5 -60.5q0 -34 -25.5 -59t-60.5 -25h-479l-26 -406q88 43 210 43q92 0 168 -23.5t129 -65t89.5 -99.5t53.5 -126.5t17 -146.5q0 -74 -15 -139t-50 -124t-88 -101t-135 -67t-185 -25q-91 0 -194.5 29.5t-176.5 76.5q-43 25 -43 72z" />
<glyph unicode="6" horiz-adv-x="1153" d="M113 471v410q0 126 29.5 228.5t88.5 179.5t155 119t222 42q89 0 179.5 -25.5t148.5 -58.5q49 -25 49 -74q0 -34 -23 -57t-57 -23q-17 0 -43 11q-140 61 -262 61q-153 0 -233 -94t-80 -260v-131q130 135 313 135q204 0 322 -125t118 -342q0 -218 -120.5 -350.5 t-344.5 -132.5q-209 0 -335.5 135t-126.5 352zM287 471q0 -159 77 -240t211 -81t212.5 80t78.5 237q0 156 -78.5 234.5t-212.5 78.5q-86 0 -163.5 -41t-124.5 -102v-166z" />
<glyph unicode="7" horiz-adv-x="1116" d="M96 1348q0 37 24.5 61.5t59.5 24.5h750q37 0 61.5 -24.5t24.5 -61.5q0 -18 -6 -33l-543 -1276q-23 -55 -80 -55q-35 0 -60.5 25.5t-25.5 60.5q0 23 10 43l502 1151h-633q-35 0 -59.5 24.5t-24.5 59.5z" />
<glyph unicode="8" horiz-adv-x="1150" d="M106 377q0 136 69.5 223t203.5 148q-238 120 -238 329q0 162 118.5 267.5t315.5 105.5t316 -105.5t119 -267.5q0 -209 -238 -329q134 -61 203 -148t69 -223q0 -185 -125 -289t-344 -104t-344 104t-125 289zM276 385q0 -112 82.5 -177t216.5 -65t216.5 65t82.5 177 q0 100 -68 166.5t-231 112.5q-163 -46 -231 -112.5t-68 -166.5zM313 1077q0 -43 15.5 -80t36 -61.5t61 -50.5t69 -40t80.5 -38q44 20 67.5 31.5t59.5 32t56 39t41 44t30 56.5t9 67q0 97 -68 156t-195 59t-194.5 -59t-67.5 -156z" />
<glyph unicode="9" horiz-adv-x="1153" d="M113 967q0 218 120.5 350.5t344.5 132.5q209 0 335.5 -135t126.5 -352v-410q0 -126 -29.5 -228.5t-88.5 -179.5t-155 -119t-222 -42q-89 0 -179.5 25.5t-148.5 58.5q-49 25 -49 73q0 34 23 57t57 23q20 0 43 -10q140 -61 262 -61q153 0 233 94t80 260v131 q-130 -135 -313 -135q-204 0 -322 125t-118 342zM287 967q0 -156 78.5 -235t212.5 -79q86 0 163 41.5t125 102.5v166q0 159 -77 240t-211 81t-212.5 -80t-78.5 -237z" />
<glyph unicode=":" horiz-adv-x="458" d="M98 115q0 55 37.5 93t93.5 38t93.5 -38t37.5 -93t-37.5 -93t-93.5 -38t-93.5 38t-37.5 93zM98 928q0 55 37.5 93t93.5 38t93.5 -38t37.5 -93t-37.5 -93t-93.5 -38t-93.5 38t-37.5 93z" />
<glyph unicode=";" horiz-adv-x="520" d="M88 -260q0 12 2 18l86 416q6 31 31.5 51.5t60.5 20.5q41 0 67.5 -27.5t26.5 -66.5q0 -15 -8 -39l-114 -389q-8 -26 -28.5 -43t-47.5 -17q-31 0 -53.5 22.5t-22.5 53.5zM129 928q0 55 37.5 93t93.5 38t93.5 -38t37.5 -93t-37.5 -93t-93.5 -38t-93.5 38t-37.5 93z" />
<glyph unicode="&#x3c;" horiz-adv-x="1028" d="M104 604q0 41 43 66l658 389q28 16 47 16q31 0 53.5 -22.5t22.5 -53.5q0 -46 -45 -69l-568 -326l568 -325q45 -23 45 -70q0 -31 -22.5 -53.5t-53.5 -22.5q-17 0 -47 17l-658 389q-43 25 -43 65z" />
<glyph unicode="=" d="M20 403q0 31 21.5 52.5t52.5 21.5h826q31 0 52 -21.5t21 -52.5t-22.5 -52t-57.5 -21h-819q-31 0 -52.5 21t-21.5 52zM20 813q0 31 21.5 52.5t52.5 21.5h826q31 0 52 -21.5t21 -52.5t-22.5 -52.5t-57.5 -21.5h-819q-31 0 -52.5 21.5t-21.5 52.5z" />
<glyph unicode="&#x3e;" horiz-adv-x="1028" d="M104 209q0 46 46 70l567 325l-567 326q-46 24 -46 69q0 31 22.5 53.5t53.5 22.5q19 0 47 -16l658 -389q43 -25 43 -66q0 -40 -43 -65l-658 -389q-30 -17 -47 -17q-31 0 -53.5 22.5t-22.5 53.5z" />
<glyph unicode="?" d="M86 1292q0 45 43 72q57 35 143 60.5t181 25.5q216 0 332 -93t116 -265q0 -67 -23.5 -124.5t-61 -97t-83 -74.5t-91 -64t-83 -58t-61 -64t-23.5 -75v-93q0 -32 -23 -54.5t-57 -22.5q-32 0 -55 22.5t-23 54.5v131q0 58 30.5 109t76 86t98.5 73t98.5 71.5t76 80.5t30.5 99 q0 202 -274 202q-109 0 -248 -61q-27 -12 -49 -12q-28 0 -49 21.5t-21 49.5zM268 115q0 55 37.5 93t93.5 38t93.5 -38t37.5 -93t-37.5 -93t-93.5 -38t-93.5 38t-37.5 93z" />
<glyph unicode="@" horiz-adv-x="1581" d="M113 598q0 157 42.5 287.5t125.5 227t214.5 150.5t299.5 54q323 0 498 -173.5t175 -502.5q0 -201 -78 -308.5t-223 -107.5q-169 0 -227 97h-8q-68 -97 -189 -97q-116 0 -176.5 71.5t-60.5 201.5v194q0 130 60.5 201.5t176.5 71.5q54 0 96.5 -22t67.5 -54l4 18 q6 26 24.5 42t43.5 16q30 0 49 -20t19 -48v-401q0 -79 26.5 -106.5t89.5 -27.5q150 0 150 279q0 528 -518 528q-262 0 -392.5 -151.5t-130.5 -419.5q0 -307 138 -446.5t436 -139.5q208 0 407 80q20 8 37 8q26 0 45 -19.5t19 -45.5q0 -44 -45 -64q-221 -104 -467 -104 q-364 0 -546.5 180.5t-182.5 550.5zM651 518q0 -84 23.5 -120t93.5 -36q71 0 135 60v346q-63 59 -135 59q-70 0 -93.5 -36.5t-23.5 -120.5v-152z" />
<glyph unicode="A" horiz-adv-x="1220" d="M88 70q0 17 8 41l412 1255q20 68 84 68h37q64 0 84 -68l411 -1260q9 -22 9 -36q0 -36 -25.5 -61t-63.5 -25q-30 0 -52 18t-31 47l-97 307h-508l-96 -307q-8 -28 -32 -46.5t-54 -18.5q-36 0 -61 25t-25 61zM399 518h422l-207 662h-8z" />
<glyph unicode="B" horiz-adv-x="1187" d="M195 86v1260q0 37 25.5 62.5t60.5 25.5h340q201 0 307 -98t106 -281q0 -98 -52 -183.5t-134 -117.5q114 -27 176.5 -116t62.5 -230q0 -88 -24.5 -160t-76 -128.5t-140 -88t-207.5 -31.5h-358q-35 0 -60.5 25.5t-25.5 60.5zM369 160h243q155 0 226 54t71 192 q0 135 -70.5 192t-211.5 57h-258v-495zM369 811h252q116 0 175.5 61t59.5 172q0 116 -55.5 173t-179.5 57h-252v-463z" />
<glyph unicode="C" horiz-adv-x="1095" d="M143 477v479q0 230 120.5 362t354.5 132q279 0 396 -221q10 -20 10 -37q0 -34 -24 -58t-58 -24q-46 0 -68 35q-45 69 -103 104t-153 35q-159 0 -230 -88t-71 -260v-438q0 -172 71 -260t230 -88q79 0 145 36t109 101q30 47 74 47q34 0 58 -24t24 -58q0 -20 -14 -45 q-127 -223 -396 -223q-234 0 -354.5 131.5t-120.5 361.5z" />
<glyph unicode="D" horiz-adv-x="1302" d="M195 86v1260q0 37 25.5 62.5t60.5 25.5h354q254 0 393 -178t139 -535q0 -329 -135 -525t-350 -196h-401q-35 0 -60.5 25.5t-25.5 60.5zM369 160h237q77 0 137.5 21.5t102 62t70 91.5t44.5 117t22.5 132t6.5 143q0 85 -9.5 158t-35 147t-67 125.5t-111 84t-160.5 32.5 h-237v-1114z" />
<glyph unicode="E" horiz-adv-x="1054" d="M195 86v1260q0 37 26.5 62.5t65.5 25.5h575q34 0 57 -23t23 -57t-23 -57t-57 -23h-493v-463h448q34 0 57 -23t23 -57t-23 -57t-57 -23h-448v-491h493q34 0 57 -23t23 -57t-23 -57t-57 -23h-581q-35 0 -60.5 25.5t-25.5 60.5z" />
<glyph unicode="F" horiz-adv-x="1034" d="M195 86v1260q0 37 25.5 62.5t60.5 25.5h581q34 0 57 -23t23 -57t-23 -57t-57 -23h-493v-483h448q34 0 57 -23t23 -57t-23 -57t-57 -23h-448v-545q0 -35 -25.5 -60.5t-62.5 -25.5q-35 0 -60.5 25.5t-25.5 60.5z" />
<glyph unicode="G" horiz-adv-x="1230" d="M143 477v479q0 230 120.5 362t354.5 132q276 0 396 -219q10 -20 10 -39q0 -34 -25 -58t-61 -24q-42 0 -64 35q-45 69 -103 104t-153 35q-159 0 -230 -88t-71 -260v-438q0 -172 71 -260t230 -88q125 0 210 60.5t85 168.5v219h-208q-34 0 -57 23t-23 57t23 57t57 23h292 q34 0 57 -23t23 -57v-303q0 -178 -127 -284.5t-332 -106.5q-234 0 -354.5 131.5t-120.5 361.5z" />
<glyph unicode="H" horiz-adv-x="1341" d="M195 70v1292q0 37 25.5 62.5t60.5 25.5q37 0 62.5 -25.5t25.5 -62.5v-539h604v543q0 35 25.5 59.5t60.5 24.5q37 0 62.5 -25.5t25.5 -62.5v-1292q0 -35 -25.5 -60.5t-62.5 -25.5q-35 0 -60.5 24t-25.5 58v598h-604v-594q0 -35 -25.5 -60.5t-62.5 -25.5q-35 0 -60.5 25.5 t-25.5 60.5z" />
<glyph unicode="I" horiz-adv-x="563" d="M195 70v1292q0 37 25.5 62.5t60.5 25.5q36 0 62 -25t26 -63v-1292q0 -35 -26.5 -60.5t-61.5 -25.5t-60.5 25.5t-25.5 60.5z" />
<glyph unicode="J" horiz-adv-x="808" d="M55 74q0 34 24 57t58 23q8 0 28 -2t28 -2q63 0 107.5 13.5t71.5 37t42.5 64.5t20.5 87.5t5 114.5v895q0 37 25.5 62.5t60.5 25.5q37 0 62.5 -25.5t25.5 -62.5v-891q0 -86 -10.5 -155t-38 -132.5t-72.5 -106t-117.5 -68t-168.5 -25.5q-35 0 -70 6q-36 6 -59 28t-23 56z " />
<glyph unicode="K" horiz-adv-x="1157" d="M195 70v1292q0 37 25.5 62.5t60.5 25.5q37 0 62.5 -25.5t25.5 -62.5v-551h120q23 0 35.5 8t24.5 29l340 555q28 47 74 47q35 0 58 -23.5t23 -58.5q0 -22 -18 -51l-356 -567l366 -635q17 -27 17 -47q0 -35 -24.5 -59.5t-61.5 -24.5q-49 0 -74 43l-332 585q-13 25 -26 32 t-39 7h-127v-581q0 -35 -26.5 -60.5t-61.5 -25.5t-60.5 25.5t-25.5 60.5z" />
<glyph unicode="L" horiz-adv-x="993" d="M195 86v1276q0 37 25.5 62.5t60.5 25.5q36 0 61.5 -25t26.5 -63v-1202h487q34 0 57 -23t23 -57t-23 -57t-57 -23h-580q-33 0 -57 25t-24 61z" />
<glyph unicode="M" horiz-adv-x="1564" d="M195 63v1313q0 31 21 52.5t52 21.5q45 0 68 -45l446 -877l445 877q22 45 69 45q30 0 52 -20.5t22 -51.5v-1315q0 -34 -23 -56.5t-57 -22.5t-57 22.5t-23 56.5v947h-10l-352 -701q-19 -39 -66 -39q-46 0 -65 39l-352 701h-11v-947q0 -34 -23 -56.5t-57 -22.5t-56.5 22.5 t-22.5 56.5z" />
<glyph unicode="N" horiz-adv-x="1366" d="M195 63v1307q0 34 22.5 57t54.5 23q44 0 72 -45l657 -1053h11v1018q0 34 23 57t57 23t56.5 -23t22.5 -57v-1304q0 -35 -27 -58.5t-63 -23.5q-52 0 -77 43l-639 1036h-11v-1000q0 -34 -23 -56.5t-57 -22.5t-56.5 22.5t-22.5 56.5z" />
<glyph unicode="O" horiz-adv-x="1236" d="M143 477v479q0 230 120.5 362t354.5 132t355 -132t121 -362v-479q0 -230 -121 -361.5t-355 -131.5t-354.5 131.5t-120.5 361.5zM317 498q0 -173 70.5 -260.5t230.5 -87.5t231 88t71 260v438q0 172 -71 260t-231 88t-230.5 -87.5t-70.5 -260.5v-438z" />
<glyph unicode="P" horiz-adv-x="1179" d="M195 70v1276q0 37 25.5 62.5t60.5 25.5h301q120 0 205.5 -20.5t151.5 -70.5t99 -140t33 -222q0 -233 -121.5 -345t-347.5 -112h-233v-454q0 -35 -25.5 -60.5t-62.5 -25.5q-35 0 -60.5 25.5t-25.5 60.5zM369 684h235q152 0 220.5 74.5t68.5 230.5q0 161 -71.5 223 t-246.5 62h-206v-590z" />
<glyph unicode="Q" horiz-adv-x="1236" d="M143 477v479q0 230 120.5 362t354.5 132t355 -132t121 -362v-479q0 -188 -80 -309l127 -121q33 -26 33 -63q0 -32 -22 -54t-56 -22t-52 18l-139 133q-113 -75 -287 -75q-234 0 -354.5 131.5t-120.5 361.5zM317 498q0 -173 70.5 -260.5t230.5 -87.5q92 0 156 28l-90 82 q-25 25 -25 57t22 54t54 22q30 0 56 -26l90 -80q39 79 39 211v438q0 172 -71 260t-231 88t-230.5 -87.5t-70.5 -260.5v-438z" />
<glyph unicode="R" horiz-adv-x="1210" d="M195 70v1276q0 37 25.5 62.5t60.5 25.5h311q234 0 357.5 -103.5t123.5 -333.5q0 -82 -18.5 -149t-46 -109t-66 -74.5t-70 -48.5t-67.5 -28l248 -465q14 -25 14 -51q0 -37 -25.5 -62.5t-62.5 -25.5q-56 0 -84 57l-262 520h-264v-495q0 -34 -25.5 -58t-62.5 -24 q-35 0 -60.5 25.5t-25.5 60.5zM369 721h233q146 0 219.5 64t73.5 212q0 157 -76 217t-239 60h-211v-553z" />
<glyph unicode="S" horiz-adv-x="1081" d="M98 158q0 34 24 58t58 24q18 0 45 -15q137 -75 295 -75q150 0 216.5 66.5t66.5 178.5q0 70 -23.5 121.5t-63 81.5t-91 52t-108.5 38t-114 33t-108.5 43t-91 62.5t-63 97.5t-23.5 143q0 185 106.5 284t306.5 99q100 0 190 -28t148 -68q43 -31 43 -70q0 -31 -23.5 -53.5 t-56.5 -22.5q-20 0 -51 17q-126 63 -250 63q-72 0 -122 -17.5t-75.5 -49.5t-35.5 -68.5t-10 -83.5q0 -52 23.5 -90.5t63 -62t91 -42t108.5 -35.5t114 -37t108.5 -51.5t91 -74t63 -110.5t23.5 -156q0 -90 -25.5 -165t-78 -134.5t-141.5 -93t-208 -33.5q-216 0 -379 100 q-43 25 -43 74z" />
<glyph unicode="T" horiz-adv-x="1136" d="M82 1354q0 33 22.5 56.5t57.5 23.5h811q37 0 58.5 -22.5t21.5 -57.5q0 -34 -22.5 -57t-57.5 -23h-318v-1204q0 -35 -25.5 -60.5t-62.5 -25.5q-36 0 -61 26.5t-25 65.5v1198h-319q-35 0 -57.5 23t-22.5 57z" />
<glyph unicode="U" horiz-adv-x="1323" d="M195 451v915q0 35 25.5 59.5t60.5 24.5q37 0 62.5 -25.5t25.5 -62.5v-891q0 -76 13.5 -132t46 -100t90.5 -66.5t143 -22.5t143 22.5t90 66.5t45.5 100t13.5 132v895q0 35 25.5 59.5t60.5 24.5q37 0 62.5 -25.5t25.5 -62.5v-911q0 -226 -118 -346.5t-348 -120.5 t-348.5 120.5t-118.5 346.5z" />
<glyph unicode="V" horiz-adv-x="1167" d="M88 1360q0 38 25.5 64t62.5 26q67 0 88 -74l316 -1155h8l315 1155q21 74 88 74q37 0 62.5 -26t25.5 -64q0 -13 -6 -37l-360 -1253q-9 -31 -32.5 -50.5t-55.5 -19.5h-82q-32 0 -55.5 19.5t-32.5 50.5l-361 1253q-6 24 -6 37z" />
<glyph unicode="W" horiz-adv-x="1732" d="M92 1360q0 38 25.5 64t62.5 26q34 0 57 -20.5t31 -53.5l254 -1155h8l234 1133q6 35 30 57.5t58 22.5h29q34 0 58 -22.5t30 -57.5l233 -1133h8l254 1155q8 33 31 53.5t57 20.5q37 0 62.5 -26t25.5 -64q0 -13 -6 -37l-299 -1253q-8 -31 -32 -50.5t-56 -19.5h-71 q-34 0 -59.5 19.5t-31.5 50.5l-215 995h-8l-215 -995q-6 -31 -31 -50.5t-59 -19.5h-72q-32 0 -56 19.5t-32 50.5l-299 1253q-6 24 -6 37z" />
<glyph unicode="X" horiz-adv-x="1032" d="M76 70q0 23 8 39l338 630l-313 584q-11 22 -11 41q0 35 25.5 60.5t60.5 25.5q54 0 78 -49l250 -494h8l250 494q24 49 78 49q35 0 60.5 -25.5t25.5 -60.5q0 -21 -10 -41l-314 -584l336 -630q10 -20 10 -39q0 -35 -25.5 -60.5t-60.5 -25.5q-55 0 -77 49l-273 536h-8 l-272 -536q-10 -23 -31.5 -36t-46.5 -13q-35 0 -60.5 25.5t-25.5 60.5z" />
<glyph unicode="Y" horiz-adv-x="1153" d="M102 1364q0 35 25.5 60.5t60.5 25.5q28 0 50.5 -15.5t33.5 -41.5l299 -676h11l301 680q10 25 33 39t51 14q37 0 62.5 -26.5t25.5 -63.5q0 -17 -8 -37l-383 -791v-460q0 -37 -24.5 -62.5t-61.5 -25.5t-63 25.5t-26 62.5v460l-378 795q-9 21 -9 37z" />
<glyph unicode="Z" horiz-adv-x="1083" d="M102 80q0 21 19 53l635 1141h-543q-34 0 -57 23t-23 57t23 57t57 23h684q34 0 57 -23t23 -57q0 -22 -14 -47l-641 -1147h573q34 0 57 -23t23 -57t-23 -57t-57 -23h-713q-34 0 -57 23t-23 57z" />
<glyph unicode="[" horiz-adv-x="706" d="M195 -162v1598q0 32 21.5 53.5t53.5 21.5h254q32 0 54 -21.5t22 -53.5t-22 -54t-54 -22h-166v-1446h166q32 0 54 -22t22 -54q0 -33 -23 -54.5t-59 -21.5h-248q-32 0 -53.5 22t-21.5 54z" />
<glyph unicode="\" horiz-adv-x="612" d="M-14 1534q0 32 22.5 55t54.5 23q28 0 48 -17.5t28 -44.5l486 -1626q4 -14 4 -26q0 -31 -22.5 -53.5t-53.5 -22.5q-28 0 -48 16.5t-28 42.5l-487 1628q-4 16 -4 25z" />
<glyph unicode="]" horiz-adv-x="706" d="M106 -162q0 32 22 54t54 22h166v1446h-166q-32 0 -54 22t-22 54t22 53.5t54 21.5h254q32 0 54 -21.5t22 -53.5v-1598q0 -32 -22 -54t-54 -22h-248q-36 0 -59 21.5t-23 54.5z" />
<glyph unicode="^" horiz-adv-x="1030" d="M76 807q0 20 10 37l360 665q21 43 68 43t68 -43l360 -665q10 -17 10 -37q0 -31 -21 -52.5t-52 -21.5q-47 0 -66 39l-299 569l-299 -569q-19 -39 -65 -39q-31 0 -52.5 21.5t-21.5 52.5z" />
<glyph unicode="_" horiz-adv-x="1120" d="M80 -147q0 28 18.5 46.5t46.5 18.5h830q28 0 46.5 -18.5t18.5 -46.5t-18.5 -47t-46.5 -19h-830q-28 0 -46.5 19t-18.5 47z" />
<glyph unicode="`" horiz-adv-x="839" d="M291 1538q0 34 23 57t57 23q53 0 71 -47l90 -238q7 -17 7 -26q0 -25 -18.5 -43.5t-43.5 -18.5q-39 0 -57 35l-115 211q-14 25 -14 47z" />
<glyph unicode="a" horiz-adv-x="1069" d="M111 307q0 80 28.5 146.5t78 111.5t112 78.5t136.5 52t144.5 27t141.5 8.5v68q0 192 -238 192q-120 0 -242 -49q-20 -8 -34 -8q-29 0 -50.5 21.5t-21.5 50.5q0 39 39 63q47 31 130 52.5t179 21.5q401 0 401 -379v-713q0 -28 -20 -47.5t-49 -19.5q-27 0 -45 16.5t-23 44.5 l-12 74q-114 -135 -307 -135q-162 0 -255 90.5t-93 232.5zM274 307q0 -89 60.5 -139.5t150.5 -50.5q101 0 173.5 49.5t95.5 112.5v321q-59 0 -113 -5.5t-109.5 -18t-100.5 -35t-81 -53.5t-56 -77.5t-20 -103.5z" />
<glyph unicode="b" horiz-adv-x="1095" d="M164 51v1419q0 34 24 58t58 24t58 -24t24 -58v-452q48 52 121.5 88.5t160.5 36.5q181 0 277 -111.5t96 -314.5v-307q0 -203 -96 -314.5t-277 -111.5q-88 0 -163 37t-123 88l-25 -72q-18 -53 -68 -53q-28 0 -47.5 19.5t-19.5 47.5zM328 244q113 -109 245 -109 q131 0 188.5 69.5t57.5 217.5v283q0 147 -57.5 216.5t-188.5 69.5q-133 0 -245 -108v-639z" />
<glyph unicode="c" horiz-adv-x="921" d="M113 410v307q0 202 102.5 314t306.5 112q215 0 320 -139q16 -24 16 -48q0 -29 -21.5 -50t-52.5 -21t-59 30q-70 76 -203 76q-132 0 -189 -69t-57 -217v-283q0 -148 57 -217.5t189 -69.5q77 0 120 18t85 58q29 29 57 29q31 0 52.5 -21.5t21.5 -52.5q0 -21 -18 -47 q-44 -62 -126.5 -98.5t-191.5 -36.5q-204 0 -306.5 112t-102.5 314z" />
<glyph unicode="d" horiz-adv-x="1083" d="M111 410v307q0 203 95.5 314.5t276.5 111.5q87 0 161 -36.5t122 -88.5v457q0 32 23.5 54.5t58.5 22.5q34 0 58 -22.5t24 -54.5v-1424q0 -28 -20 -47.5t-48 -19.5q-54 0 -69 53l-23 72q-48 -51 -123.5 -88t-163.5 -37q-181 0 -276.5 111.5t-95.5 314.5zM274 422 q0 -148 57.5 -217.5t188.5 -69.5q133 0 246 109v639q-112 108 -246 108q-131 0 -188.5 -69.5t-57.5 -216.5v-283z" />
<glyph unicode="e" d="M113 373v344q0 200 101.5 313t299.5 113q202 0 299.5 -110.5t97.5 -315.5v-139q0 -30 -21.5 -51t-53.5 -21h-560v-168q0 -91 59.5 -147t188.5 -56q80 0 132.5 16t107.5 50q22 14 45 14q32 0 51 -21t19 -53t-31 -57q-51 -40 -136 -70t-188 -30q-203 0 -307 101.5 t-104 287.5zM276 641h476v64q0 147 -55.5 216.5t-182.5 69.5t-182.5 -69.5t-55.5 -216.5v-64z" />
<glyph unicode="f" horiz-adv-x="768" d="M49 1049q0 26 18 44.5t44 20.5l145 12v43q0 183 83 281t247 98q68 0 123 -22q47 -19 47 -68q0 -29 -21.5 -50.5t-52.5 -21.5q-12 0 -42 5.5t-50 5.5q-170 0 -170 -193v-78h227q29 0 50.5 -21t21.5 -50t-21.5 -50.5t-50.5 -21.5h-227v-917q0 -34 -24 -58t-58 -24t-58 24 t-24 58v917h-141q-28 0 -47 19t-19 47z" />
<glyph unicode="g" horiz-adv-x="1075" d="M113 410v307q0 203 95.5 314.5t276.5 111.5q88 0 163.5 -37t123.5 -88l25 74q18 51 65 51q27 0 47 -19t23 -47v-1044q0 -71 -10.5 -133t-39 -124t-73.5 -106.5t-119.5 -72t-171.5 -27.5q-179 0 -287 57q-43 19 -43 66q0 29 21.5 50t50.5 21q13 0 25 -4 q69 -24 114.5 -33.5t118.5 -9.5q250 0 250 320v72q-48 -52 -122 -88.5t-161 -36.5q-181 0 -276.5 111.5t-95.5 314.5zM276 422q0 -148 57.5 -217.5t188.5 -69.5q133 0 246 109v639q-112 108 -246 108q-131 0 -188.5 -69.5t-57.5 -216.5v-283z" />
<glyph unicode="h" horiz-adv-x="1146" d="M164 66v1404q0 34 24 58t58 24q33 0 57.5 -23.5t24.5 -58.5v-469q142 142 321 142q90 0 157.5 -30t107.5 -83t59.5 -121.5t19.5 -150.5v-692q0 -35 -24.5 -58.5t-57.5 -23.5q-34 0 -58 24t-24 58v653q0 140 -59 201t-176 61q-74 0 -144 -35.5t-122 -83.5v-794 q0 -36 -24.5 -60t-57.5 -24q-34 0 -58 24t-24 58z" />
<glyph unicode="i" horiz-adv-x="501" d="M141 1399q0 48 33 82.5t84 34.5t84 -34.5t33 -82.5t-33 -82.5t-84 -34.5t-84 34.5t-33 82.5zM174 66v995q2 35 25 58.5t57 23.5t58 -24t24 -58v-995q0 -34 -24 -58t-58 -24t-58 24t-24 58z" />
<glyph unicode="j" horiz-adv-x="491" d="M-147 -336q0 30 21 50t52 20q10 0 33 -2t35 -2q89 0 128 50.5t42 141.5v1139q0 35 24 58.5t58 23.5t58 -23.5t24 -58.5v-1104q0 -189 -79.5 -284t-254.5 -95q-46 0 -82 10q-59 17 -59 76zM131 1399q0 48 33 82.5t84 34.5t84 -34.5t33 -82.5t-33 -82.5t-84 -34.5t-84 34.5 t-33 82.5z" />
<glyph unicode="k" horiz-adv-x="1003" d="M164 66v1404q0 34 24 58t58 24t58 -24t24 -58v-792h110q26 0 37 6t25 27l270 391q26 41 70 41q32 0 56 -24t24 -56q0 -24 -19 -51l-283 -394l304 -507q16 -24 16 -48q0 -32 -24 -55.5t-56 -23.5q-45 0 -70 41l-280 469q-13 22 -27.5 31.5t-42.5 9.5h-110v-469 q0 -34 -24 -58t-58 -24t-58 24t-24 58z" />
<glyph unicode="l" horiz-adv-x="481" d="M164 66v1404q1 38 24.5 60t57.5 22t58 -24t24 -58v-1404q0 -34 -24 -58t-58 -24t-58 24t-24 58z" />
<glyph unicode="m" horiz-adv-x="1753" d="M164 66v1007q0 29 19.5 49.5t47.5 20.5q26 0 46.5 -18t23.5 -44l12 -94q21 24 47.5 46.5t67.5 49.5t95 43.5t112 16.5q207 0 289 -168q23 25 50 48t71.5 53t101.5 48.5t117 18.5q168 0 251.5 -107t83.5 -278v-692q0 -34 -23.5 -58t-57.5 -24t-58 23t-24 54v658 q0 139 -59 200.5t-169 61.5q-126 0 -252 -117q11 -61 11 -106v-692q0 -34 -24 -58t-58 -24t-58 22t-24 55v658q0 141 -54.5 201.5t-168.5 60.5q-129 0 -252 -119v-796q0 -34 -24 -58t-58 -24t-58 24t-24 58z" />
<glyph unicode="n" horiz-adv-x="1136" d="M164 66v1007q0 29 19.5 49.5t47.5 20.5q30 0 48.5 -18t21.5 -46l12 -92q21 23 49 46t70 50t97.5 43.5t113.5 16.5q173 0 256.5 -106.5t83.5 -278.5v-692q0 -34 -24 -58t-58 -24t-58 24t-24 58v653q0 140 -58 201t-173 61q-128 0 -260 -119v-796q0 -33 -24.5 -57.5 t-57.5 -24.5q-34 0 -58 24t-24 58z" />
<glyph unicode="o" horiz-adv-x="1044" d="M113 410v307q0 202 102.5 314t306.5 112q410 0 410 -426v-307q0 -426 -410 -426q-204 0 -306.5 112t-102.5 314zM276 422q0 -148 57 -217.5t189 -69.5t189 69.5t57 217.5v283q0 148 -57 217t-189 69t-189 -69t-57 -217v-283z" />
<glyph unicode="p" horiz-adv-x="1095" d="M164 -348v1425q0 27 20 46.5t47 19.5q24 0 43 -14.5t25 -36.5l25 -74q48 51 123 88t163 37q181 0 277 -111.5t96 -314.5v-307q0 -203 -96 -314.5t-277 -111.5q-87 0 -160.5 36.5t-121.5 88.5v-457q0 -34 -24 -58t-58 -24t-58 24t-24 58zM328 244q113 -109 245 -109 q131 0 188.5 69.5t57.5 217.5v283q0 147 -57.5 216.5t-188.5 69.5q-133 0 -245 -108v-639z" />
<glyph unicode="q" horiz-adv-x="1085" d="M113 410v307q0 203 95.5 314.5t276.5 111.5q88 0 163.5 -37t123.5 -88l25 74q6 22 24.5 36.5t42.5 14.5q27 0 47.5 -19.5t20.5 -46.5v-1425q0 -34 -24 -58t-58 -24t-58 24t-24 58v457q-48 -52 -122 -88.5t-161 -36.5q-181 0 -276.5 111.5t-95.5 314.5zM276 422 q0 -148 57.5 -217.5t188.5 -69.5q133 0 246 109v639q-112 108 -246 108q-131 0 -188.5 -69.5t-57.5 -216.5v-283z" />
<glyph unicode="r" horiz-adv-x="768" d="M164 66v1009q0 28 19.5 48t47.5 20q26 0 46.5 -18t23.5 -44l12 -102q19 24 45 48.5t65.5 52.5t93.5 45.5t112 17.5q42 0 69 -21t27 -59q0 -33 -21.5 -56.5t-54.5 -23.5q-104 0 -181.5 -30t-139.5 -107v-780q0 -35 -24.5 -58.5t-57.5 -23.5q-34 0 -58 24t-24 58z" />
<glyph unicode="s" horiz-adv-x="892" d="M78 127q0 31 21.5 52.5t50.5 21.5q17 0 55 -19q56 -29 107 -41t124 -12q230 0 230 197q0 37 -11.5 65.5t-28.5 47t-50 34t-61.5 25t-78.5 22.5q-45 12 -71 19.5t-66.5 22.5t-64.5 29t-52.5 37.5t-44 50t-26.5 63.5t-11 81q0 158 99 239t262 81q161 0 280 -68 q43 -21 43 -65q0 -30 -21 -51t-52 -21q-16 0 -35 8q-108 51 -215 51q-203 0 -203 -161q0 -33 13.5 -59t31.5 -42.5t54.5 -32t63 -24t75.5 -21.5q45 -13 73.5 -22t66.5 -24t61.5 -30.5t49 -39.5t39.5 -52t23.5 -66.5t9.5 -84.5q0 -169 -96.5 -261.5t-286.5 -92.5 q-100 0 -185 24t-136 55q-37 19 -37 64z" />
<glyph unicode="t" horiz-adv-x="849" d="M49 1049q0 27 17 44.5t47 20.5l147 12l12 170q7 74 74 74q33 0 53.5 -23t20.5 -57v-164h252q30 0 49.5 -21t19.5 -50t-20.5 -50.5t-48.5 -21.5h-252v-659q0 -95 36.5 -137t133.5 -42q39 0 71.5 6.5t43.5 6.5q31 0 51 -20.5t20 -51.5q0 -47 -43 -66q-58 -26 -164 -26 q-174 0 -243.5 81.5t-69.5 268.5v639h-141q-29 0 -47.5 19t-18.5 47z" />
<glyph unicode="u" horiz-adv-x="1126" d="M154 369v696q0 32 24.5 55t57.5 23q34 0 57.5 -24t23.5 -58v-653q0 -140 58.5 -201.5t173.5 -61.5q128 0 260 119v801q0 32 24 55t58 23t58 -24t24 -58v-1008q0 -29 -20 -49t-48 -20t-47 17.5t-22 45.5l-13 92q-21 -23 -48.5 -45.5t-70 -49.5t-97.5 -43.5t-113 -16.5 q-173 0 -256.5 106.5t-83.5 278.5z" />
<glyph unicode="v" horiz-adv-x="987" d="M61 1065q0 32 24 55t56 23q63 0 84 -68l264 -882h9l264 882q21 68 84 68q32 0 56 -23t24 -55q0 -15 -8 -39l-308 -969q-8 -25 -29.5 -41t-48.5 -16h-77q-27 0 -48.5 16t-29.5 41l-307 969q-9 27 -9 39z" />
<glyph unicode="w" horiz-adv-x="1449" d="M63 1057q0 35 26 60.5t61 25.5q31 0 53 -20t30 -52l209 -878h9l190 878q6 32 29 52t55 20t55 -20t29 -52l190 -878h9l209 878q8 32 30 52t53 20q35 0 60.5 -25.5t25.5 -60.5q0 -5 -6 -35l-254 -961q-6 -26 -26.5 -43.5t-48.5 -17.5h-86q-29 0 -49.5 17.5t-26.5 43.5 l-160 705h-8l-160 -705q-6 -26 -26.5 -43.5t-49.5 -17.5h-86q-28 0 -48.5 17.5t-26.5 43.5l-254 961z" />
<glyph unicode="x" horiz-adv-x="937" d="M78 68q0 19 12 43l279 458l-265 441q-16 28 -16 49q0 35 23.5 59.5t60.5 24.5q47 0 78 -53l209 -375h8l221 375q31 53 80 53q34 0 58 -25t24 -59q0 -21 -16 -49l-269 -432l283 -467q12 -24 12 -43q0 -34 -25 -59t-59 -25q-38 0 -63 28q-11 11 -19 27l-219 395h-8 l-223 -395q-8 -16 -19 -27q-25 -28 -63 -28q-34 0 -59 25t-25 59z" />
<glyph unicode="y" horiz-adv-x="987" d="M61 1065q0 32 24 55t56 23q63 0 84 -68l264 -882h9l264 882q21 68 84 68q32 0 56 -23t24 -55q0 -15 -8 -39l-437 -1393q-9 -28 -31.5 -45.5t-48.5 -17.5q-32 0 -55.5 24t-23.5 56q0 17 8 41l104 309q-40 0 -49 29l-315 997q-9 27 -9 39z" />
<glyph unicode="z" horiz-adv-x="960" d="M104 76q0 23 17 47l536 852h-460q-29 0 -50.5 22.5t-21.5 53.5q0 30 21.5 52.5t50.5 22.5h594q29 0 50 -22.5t21 -52.5q0 -20 -12 -41l-541 -858h510q29 0 50.5 -23t21.5 -53q0 -31 -22.5 -53.5t-53.5 -22.5h-635q-31 0 -53.5 22.5t-22.5 53.5z" />
<glyph unicode="{" horiz-adv-x="835" d="M78 637q0 32 22 54t56 22q137 0 137 196v355q0 128 54.5 187.5t146.5 59.5h92q31 0 53.5 -22t22.5 -53t-22.5 -53.5t-53.5 -22.5h-49q-80 0 -80 -103v-348q0 -118 -40 -180t-136 -88v-8q96 -26 136 -88t40 -180v-349q0 -102 80 -102h49q31 0 53.5 -22.5t22.5 -53.5 t-22.5 -53.5t-53.5 -22.5h-92q-92 0 -146.5 60t-54.5 188v355q0 196 -137 196q-34 0 -56 22t-22 54z" />
<glyph unicode="|" horiz-adv-x="491" d="M164 -172v1677q0 34 24 58t58 24t58 -24t24 -58v-1677q0 -34 -24 -58t-58 -24t-58 24t-24 58z" />
<glyph unicode="}" horiz-adv-x="835" d="M174 -162q0 31 22.5 53.5t53.5 22.5h49q80 0 80 102v349q0 118 40 180t136 88v8q-96 26 -136 88t-40 180v348q0 103 -80 103h-49q-31 0 -53.5 22.5t-22.5 53.5t22.5 53t53.5 22h92q92 0 146.5 -59.5t54.5 -187.5v-355q0 -196 137 -196q34 0 56 -22t22 -54t-22 -54 t-56 -22q-137 0 -137 -196v-355q0 -128 -54.5 -188t-146.5 -60h-92q-31 0 -53.5 22.5t-22.5 53.5z" />
<glyph unicode="&#xa1;" horiz-adv-x="458" d="M98 995q0 55 37.5 93t93.5 38t93.5 -38t37.5 -93t-37.5 -93t-93.5 -38t-93.5 38t-37.5 93zM139 -252l25 903q0 26 18.5 45t44.5 19t45 -19t19 -45l26 -903q1 -37 -25.5 -62.5t-64.5 -25.5q-37 0 -63 26t-25 62z" />
<glyph unicode="&#xa2;" horiz-adv-x="921" d="M113 508v401q0 348 338 377v100q0 28 18.5 46t46.5 18t47 -18t19 -46v-102q56 -5 121.5 -23.5t109.5 -46.5q39 -24 39 -61q0 -29 -21.5 -50.5t-50.5 -21.5q-11 0 -32 9q-108 47 -234 47q-238 0 -238 -193v-471q0 -192 238 -192q107 0 240 55q15 6 26 6q29 0 50.5 -21.5 t21.5 -50.5q0 -40 -35 -61q-110 -61 -235 -76v-86q0 -27 -19 -45t-47 -18t-46.5 17.5t-18.5 45.5v84q-338 26 -338 377z" />
<glyph unicode="&#xa3;" horiz-adv-x="1159" d="M43 723q0 24 14.5 40t36.5 19l135 23q-34 117 -34 231q0 90 26.5 162t70 118.5t103 77t123 43.5t133.5 13q185 0 314 -80q45 -27 45 -70q0 -32 -22 -53.5t-56 -21.5q-15 0 -39 8q-127 51 -240 51q-284 0 -284 -256q0 -105 34 -219h420q29 0 50.5 -21.5t21.5 -50.5 t-21.5 -50t-50.5 -21h-385q35 -158 35 -224q0 -179 -127 -282h606q34 0 57 -23t23 -57t-23 -57t-57 -23h-788q-35 0 -59.5 24.5t-24.5 59.5q0 54 57 82q37 19 65 40.5t53 54t38.5 80t13.5 108.5q0 69 -41 217h-166q-24 0 -40.5 15.5t-16.5 41.5z" />
<glyph unicode="&#xa4;" horiz-adv-x="1175" d="M84 236q0 30 27 57l135 137q-64 98 -64 246t64 246l-135 135q-27 27 -27 59q0 31 21.5 52.5t52.5 21.5q28 0 57 -29l137 -135q98 64 236 64q137 0 235 -64l138 135q29 29 57 29q31 0 52.5 -21.5t21.5 -52.5q0 -32 -27 -59l-135 -135q63 -97 63 -246t-63 -246l135 -137 q27 -27 27 -57q0 -31 -21.5 -52.5t-52.5 -21.5q-28 0 -49 18l-146 146q-98 -64 -235 -64q-138 0 -236 64l-145 -146q-21 -18 -49 -18q-31 0 -52.5 21.5t-21.5 52.5zM338 676q0 -125 62 -194.5t188 -69.5t188 69.5t62 194.5t-62 194.5t-188 69.5t-188 -69.5t-62 -194.5z" />
<glyph unicode="&#xa5;" horiz-adv-x="1153" d="M102 1364q0 35 25.5 60.5t60.5 25.5q28 0 50.5 -15.5t33.5 -41.5l299 -676h11l301 680q10 25 33 39t51 14q37 0 62.5 -26.5t25.5 -63.5q0 -17 -8 -37l-312 -643h176q31 0 52.5 -21.5t21.5 -52.5t-22.5 -52.5t-57.5 -21.5h-241v-112h247q31 0 52.5 -21.5t21.5 -52.5 t-22.5 -52.5t-57.5 -21.5h-241v-200q0 -37 -24.5 -62.5t-61.5 -25.5t-63 25.5t-26 62.5v200h-247q-31 0 -52.5 21.5t-21.5 52.5q0 32 20 53t54 21h247v112h-247q-31 0 -52.5 21.5t-21.5 52.5q0 32 20 53t54 21h176l-307 647q-9 21 -9 37z" />
<glyph unicode="&#xa6;" horiz-adv-x="491" d="M164 -172v696q0 34 24 58t58 24t58 -24t24 -58v-696q0 -34 -24 -58t-58 -24t-58 24t-24 58zM164 809v696q0 34 24 58t58 24t58 -24t24 -58v-696q0 -34 -24 -58t-58 -24t-58 24t-24 58z" />
<glyph unicode="&#xa7;" horiz-adv-x="1048" d="M78 584q0 160 112 264q-75 93 -75 250q0 170 109.5 261t303.5 91q200 0 346 -82q46 -25 46 -72q0 -32 -22 -53.5t-56 -21.5q-14 0 -29 6q-150 61 -285 61q-123 0 -183 -49.5t-60 -138.5q0 -58 23.5 -100.5t63 -68.5t91 -45.5t108.5 -36t114 -35.5t108.5 -48.5t91 -69.5 t63 -105t23.5 -149q0 -160 -113 -264q76 -95 76 -250q0 -170 -110 -261t-304 -91q-89 0 -184 22.5t-168 61.5q-39 19 -39 68q0 34 21.5 55.5t54.5 21.5q20 0 43 -10q134 -57 272 -57q123 0 183.5 49.5t60.5 138.5q0 58 -23.5 100.5t-63 68.5t-91 45.5t-108.5 36t-114 35.5 t-108.5 48.5t-91 69.5t-63 105t-23.5 149zM248 598q0 -61 22.5 -107.5t56.5 -74t85.5 -50.5t99.5 -36.5t109.5 -33.5t103.5 -40q30 30 53 76t23 96q0 61 -22.5 107.5t-56.5 74t-85.5 50.5t-99.5 36.5t-109.5 33.5t-103.5 40q-30 -30 -53 -76t-23 -96z" />
<glyph unicode="&#xa8;" horiz-adv-x="874" d="M139 1403q0 47 34 81t81 34t81 -34t34 -81t-34 -81t-81 -34t-81 34t-34 81zM504 1403q0 47 33.5 81t80.5 34t81 -34t34 -81t-34 -81t-81 -34t-80.5 34t-33.5 81z" />
<glyph unicode="&#xa9;" horiz-adv-x="1705" d="M92 782q0 370 202.5 584.5t565.5 214.5t565.5 -214.5t202.5 -584.5t-202.5 -584t-565.5 -214t-565.5 214t-202.5 584zM248 782q0 -305 156 -476t456 -171q301 0 457 171t156 476t-156.5 476.5t-456.5 171.5t-456 -171.5t-156 -476.5zM528 657v248q0 153 82 241.5 t236 88.5q187 0 272 -152q15 -30 15 -49q0 -26 -19.5 -43.5t-46.5 -17.5q-35 0 -57 37q-29 47 -66.5 68.5t-97.5 21.5q-90 0 -132 -50t-42 -159v-219q0 -109 42 -159t132 -50q103 0 172 98q23 29 53 29q26 0 46 -20t20 -46q0 -20 -23 -51q-34 -45 -65.5 -73.5t-84 -50 t-118.5 -21.5q-154 0 -236 88.5t-82 240.5z" />
<glyph unicode="&#xaa;" horiz-adv-x="770" d="M106 905q0 76 37 132.5t99.5 86.5t131 44t144.5 14v35q0 108 -135 108q-71 0 -150 -31q-23 -10 -40 -10q-23 0 -40.5 17t-17.5 40q0 35 37 58q32 21 90.5 36t120.5 15q272 0 272 -256v-446q0 -26 -17 -43t-42 -17q-23 0 -38.5 14.5t-20.5 36.5l-7 25q-67 -80 -190 -80 q-111 0 -172.5 61.5t-61.5 159.5zM240 909q0 -51 35 -80.5t92 -29.5q58 0 99 26t54 62v188q-53 0 -98.5 -7.5t-88.5 -24.5t-68 -51.5t-25 -82.5z" />
<glyph unicode="&#xab;" horiz-adv-x="1228" d="M98 612q0 51 43 88l387 330q20 17 43 17q28 0 48 -20t20 -46t-27 -53l-295 -316l295 -315q27 -27 27 -53t-20 -46t-48 -20q-23 0 -43 17l-387 329q-43 37 -43 88zM590 612q0 51 43 88l387 330q20 17 43 17q27 0 47 -19.5t20 -46.5t-26 -53l-295 -316l295 -315 q26 -26 26 -53q0 -26 -20 -46t-47 -20q-23 0 -43 17l-387 329q-43 37 -43 88z" />
<glyph unicode="&#xac;" horiz-adv-x="1097" d="M25 680q0 32 19.5 53t53.5 21h906q31 0 52 -22.5t21 -57.5v-494q0 -29 -21 -50t-50 -21q-30 0 -51 19t-21 52v426h-836q-31 0 -52 21.5t-21 52.5z" />
<glyph unicode="&#xad;" horiz-adv-x="661" d="M72 616q0 31 22 53.5t53 22.5h367q31 0 53.5 -22.5t22.5 -53.5t-22.5 -53t-53.5 -22h-367q-31 0 -53 22t-22 53z" />
<glyph unicode="&#xae;" horiz-adv-x="1101" d="M92 989q0 213 121.5 337t337.5 124t337.5 -124t121.5 -337t-121.5 -337t-337.5 -124t-337.5 124t-121.5 337zM195 989q0 -172 90.5 -268t265.5 -96t265.5 96t90.5 268t-90.5 268.5t-265.5 96.5t-265.5 -96.5t-90.5 -268.5zM391 752v467q0 19 12 31t31 12h115 q186 0 186 -175q0 -70 -30.5 -109.5t-75.5 -51.5l94 -148q10 -17 10 -30q0 -15 -12 -27t-29 -12q-25 0 -37 24l-108 182h-70v-163q0 -19 -12 -31t-31 -12t-31 12t-12 31zM477 995h78q92 0 92 92q0 51 -25 72t-77 21h-68v-185z" />
<glyph unicode="&#xaf;" horiz-adv-x="759" d="M106 1438q0 29 19 50t47 21h408q33 0 53 -20.5t20 -50.5q0 -29 -20 -49.5t-53 -20.5h-408q-27 0 -46.5 21t-19.5 49z" />
<glyph unicode="&#xb0;" horiz-adv-x="675" d="M78 1243q0 108 72.5 182t187.5 74q116 0 188 -74t72 -182q0 -107 -72 -180.5t-188 -73.5q-115 0 -187.5 73.5t-72.5 180.5zM199 1243q0 -60 40 -99.5t99 -39.5t98 39.5t39 99.5q0 64 -36.5 102.5t-100.5 38.5q-63 0 -101 -39t-38 -102z" />
<glyph unicode="&#xb1;" d="M20 113q0 31 21.5 52t52.5 21h826q31 0 52 -21t21 -52t-22.5 -52.5t-57.5 -21.5h-819q-31 0 -52.5 21.5t-21.5 52.5zM20 737q0 31 21.5 52.5t52.5 21.5h340v352q0 31 21.5 52.5t52.5 21.5t52.5 -21.5t21.5 -52.5v-352h338q31 0 52 -21.5t21 -52.5t-22.5 -52t-57.5 -21 h-331v-351q0 -31 -21.5 -52t-52.5 -21t-52.5 21t-21.5 52v351h-340q-31 0 -52.5 21t-21.5 52z" />
<glyph unicode="&#xb2;" horiz-adv-x="829" d="M123 1313q0 38 41 63q105 68 233 68q138 0 220.5 -69t82.5 -193q0 -50 -23 -98t-59 -87.5t-80 -77t-88.5 -71t-80.5 -65.5t-59 -66t-23 -66h356q32 0 54 -22t22 -54t-21.5 -52.5t-54.5 -20.5h-442q-29 0 -51.5 22t-22.5 51v46q0 60 31 118t77 101.5t100 89t100 82.5 t77 80t31 82q0 60 -40 92t-108 32q-75 0 -172 -45q-16 -8 -33 -8q-29 0 -48 19.5t-19 48.5z" />
<glyph unicode="&#xb3;" horiz-adv-x="829" d="M111 614q0 31 19.5 51.5t47.5 20.5q16 0 39 -10q89 -39 176 -39q92 0 130 42t38 103q0 60 -45 93.5t-119 33.5h-96q-29 0 -50.5 21.5t-21.5 50.5q0 31 21.5 52.5t50.5 21.5h105q50 0 90.5 31.5t40.5 84.5q0 58 -37.5 92.5t-102.5 34.5q-85 0 -168 -45q-20 -10 -36 -10 q-28 0 -48 20t-20 48q0 39 39 63q112 70 235 70q146 0 220.5 -66.5t74.5 -189.5q0 -128 -100 -195q121 -65 121 -213q0 -59 -16.5 -109t-52 -92t-100 -66t-151.5 -24q-135 0 -241 62q-43 24 -43 63z" />
<glyph unicode="&#xb4;" horiz-adv-x="839" d="M295 1307q0 11 6 26l90 238q18 47 72 47q34 0 57 -23t23 -57q0 -21 -15 -47l-114 -211q-18 -35 -58 -35q-25 0 -43 18.5t-18 43.5z" />
<glyph unicode="&#xb5;" horiz-adv-x="1126" d="M154 -348v1413q0 32 24.5 55t57.5 23q34 0 57.5 -24t23.5 -58v-653q0 -140 58.5 -201.5t173.5 -61.5q128 0 260 119v801q0 32 24 55t58 23t58 -24t24 -58v-1008q0 -29 -20 -49t-48 -20t-47 17.5t-22 45.5l-13 92q-21 -23 -48.5 -45.5t-70 -49.5t-97.5 -43.5t-113 -16.5 q-104 0 -177 39v-371q0 -34 -23.5 -58t-57.5 -24t-58 24t-24 58z" />
<glyph unicode="&#xb6;" horiz-adv-x="1128" d="M51 1036q0 172 108.5 285t303.5 113h555q32 0 52 -21.5t20 -52.5q0 -32 -21 -53t-57 -21h-86v-1638q0 -32 -23 -55t-55 -23t-55 23t-23 55v1638h-166v-1638q0 -32 -23 -55t-55 -23t-54.5 23t-22.5 55v995h-13q-175 0 -280 106.5t-105 286.5z" />
<glyph unicode="&#xb7;" horiz-adv-x="458" d="M98 631q0 55 37.5 93t93.5 38t93.5 -38t37.5 -93t-37.5 -93t-93.5 -38t-93.5 38t-37.5 93z" />
<glyph unicode="&#xb8;" horiz-adv-x="851" d="M221 -356q0 23 14 38t35 15q9 0 17 -2q74 -17 116 -17q60 0 78.5 14.5t18.5 43.5q0 59 -80 59q-20 0 -48 -6t-40 -6q-16 0 -28 11.5t-9 29.5l31 201h114l-41 -136q31 7 64 7q72 0 117 -38.5t45 -121.5q0 -61 -33 -100t-78 -52.5t-102 -13.5q-79 0 -154 27q-37 13 -37 47z " />
<glyph unicode="&#xb9;" horiz-adv-x="829" d="M111 1270q0 44 47 63l260 105q32 12 45 12q32 0 54 -23t22 -55v-721h108q31 0 53.5 -22.5t22.5 -53.5q0 -30 -22.5 -51.5t-53.5 -21.5h-422q-31 0 -53 21t-22 52t22 53.5t53 22.5h160v623l-172 -66q-20 -8 -33 -8q-29 0 -49 20.5t-20 49.5z" />
<glyph unicode="&#xba;" horiz-adv-x="770" d="M104 969v196q0 134 71.5 209.5t209.5 75.5q279 0 279 -285v-196q0 -285 -279 -285q-138 0 -209.5 75.5t-71.5 209.5zM242 977q0 -84 33.5 -124t109.5 -40t108.5 39.5t32.5 124.5v180q0 85 -32.5 124.5t-108.5 39.5t-109.5 -40t-33.5 -124v-180z" />
<glyph unicode="&#xbb;" horiz-adv-x="1228" d="M98 244q0 26 27 53l295 315l-295 316q-27 27 -27 53t20 46t48 20q23 0 43 -17l387 -330q43 -37 43 -88t-43 -88l-387 -329q-20 -17 -43 -17q-28 0 -48 20t-20 46zM590 244q0 27 26 53l295 315l-295 316q-26 26 -26 53t20 46.5t47 19.5q23 0 43 -17l387 -330 q43 -37 43 -88t-43 -88l-387 -329q-20 -17 -43 -17q-27 0 -47 20t-20 46z" />
<glyph unicode="&#xbc;" horiz-adv-x="1994" d="M111 1270q0 44 47 63l260 105q32 12 45 12q32 0 54 -23t22 -55v-721h108q31 0 53.5 -22.5t22.5 -53.5q0 -30 -22.5 -51.5t-53.5 -21.5h-422q-31 0 -53 21t-22 52t22 53.5t53 22.5h160v623l-172 -66q-20 -8 -33 -8q-29 0 -49 20.5t-20 49.5zM659 -102q0 9 7 30l487 1624 q8 26 28 43t46 17q32 0 55 -23t23 -55q0 -10 -5 -25l-489 -1628q-18 -59 -76 -59q-31 0 -53.5 22.5t-22.5 53.5zM1149 268q0 21 10 41l266 592q21 47 70 47q31 0 53.5 -22.5t22.5 -53.5q0 -18 -10 -41l-228 -489h223v188q0 32 22 54t54 22q34 0 56 -23t22 -59v-182h57 q31 0 52.5 -21.5t21.5 -52.5t-21.5 -52t-52.5 -21h-57v-136q0 -31 -22.5 -53t-55.5 -22q-32 0 -54 21.5t-22 53.5v136h-333q-31 0 -52.5 21t-21.5 52z" />
<glyph unicode="&#xbd;" horiz-adv-x="1996" d="M111 1270q0 44 47 63l260 105q32 12 45 12q32 0 54 -23t22 -55v-721h108q31 0 53.5 -22.5t22.5 -53.5q0 -30 -22.5 -51.5t-53.5 -21.5h-422q-31 0 -53 21t-22 52t22 53.5t53 22.5h160v623l-172 -66q-20 -8 -33 -8q-29 0 -49 20.5t-20 49.5zM659 -102q0 9 7 30l487 1624 q8 26 28 43t46 17q32 0 55 -23t23 -55q0 -10 -5 -25l-489 -1628q-18 -59 -76 -59q-31 0 -53.5 22.5t-22.5 53.5zM1247 811q0 38 41 63q105 68 234 68q138 0 220.5 -69t82.5 -193q0 -50 -23 -98t-59.5 -87t-80.5 -76.5t-88 -71.5t-80.5 -65.5t-59.5 -65.5t-23 -66h356 q32 0 54 -22t22 -54t-22 -53t-54 -21h-442q-29 0 -51.5 22.5t-22.5 51.5v45q0 60 31 118t77 101.5t100 89t100 82.5t77 80t31 82q0 60 -39.5 92.5t-107.5 32.5q-75 0 -172 -45q-18 -9 -33 -9q-29 0 -48.5 19.5t-19.5 48.5z" />
<glyph unicode="&#xbe;" horiz-adv-x="1994" d="M111 614q0 31 19.5 51.5t47.5 20.5q16 0 39 -10q89 -39 176 -39q92 0 130 42t38 103q0 60 -45 93.5t-119 33.5h-96q-29 0 -50.5 21.5t-21.5 50.5q0 31 21.5 52.5t50.5 21.5h105q50 0 90.5 31.5t40.5 84.5q0 58 -37.5 92.5t-102.5 34.5q-85 0 -168 -45q-20 -10 -36 -10 q-28 0 -48 20t-20 48q0 39 39 63q112 70 235 70q146 0 220.5 -66.5t74.5 -189.5q0 -128 -100 -195q121 -65 121 -213q0 -59 -16.5 -109t-52 -92t-100 -66t-151.5 -24q-135 0 -241 62q-43 24 -43 63zM659 -102q0 9 7 30l487 1624q8 26 28 43t46 17q32 0 55 -23t23 -55 q0 -10 -5 -25l-489 -1628q-18 -59 -76 -59q-31 0 -53.5 22.5t-22.5 53.5zM1149 268q0 21 10 41l266 592q21 47 70 47q31 0 53.5 -22.5t22.5 -53.5q0 -18 -10 -41l-228 -489h223v188q0 32 22 54t54 22q34 0 56 -23t22 -59v-182h57q31 0 52.5 -21.5t21.5 -52.5t-21.5 -52 t-52.5 -21h-57v-136q0 -31 -22.5 -53t-55.5 -22q-32 0 -54 21.5t-22 53.5v136h-333q-31 0 -52.5 21t-21.5 52z" />
<glyph unicode="&#xbf;" d="M113 18q0 67 23.5 124.5t61 97t83 74.5t91 64t83 58t61 64t23.5 75v93q0 32 22.5 54.5t56.5 22.5q32 0 55 -22.5t23 -54.5v-131q0 -58 -30.5 -109t-75.5 -86t-98.5 -73t-98.5 -71.5t-75.5 -80.5t-30.5 -99q0 -202 274 -202q109 0 248 61q27 12 49 12q28 0 49 -21.5 t21 -49.5q0 -45 -43 -72q-57 -35 -143 -60.5t-181 -25.5q-216 0 -332 93t-116 265zM483 995q0 55 37.5 93t93.5 38t93.5 -38t37.5 -93t-37.5 -93t-93.5 -38t-93.5 38t-37.5 93z" />
<glyph unicode="&#xc0;" horiz-adv-x="1220" d="M88 70q0 17 8 41l412 1255q20 68 84 68h37q64 0 84 -68l411 -1260q9 -22 9 -36q0 -36 -25.5 -61t-63.5 -25q-30 0 -52 18t-31 47l-97 307h-508l-96 -307q-8 -28 -32 -46.5t-54 -18.5q-36 0 -61 25t-25 61zM399 518h422l-207 662h-8zM430 1845q0 34 23 57t57 23 q54 0 72 -47l90 -238q6 -15 6 -26q0 -25 -18.5 -43.5t-43.5 -18.5q-39 0 -57 35l-115 211q-14 24 -14 47z" />
<glyph unicode="&#xc1;" horiz-adv-x="1220" d="M88 70q0 17 8 41l412 1255q20 68 84 68h37q64 0 84 -68l411 -1260q9 -22 9 -36q0 -36 -25.5 -61t-63.5 -25q-30 0 -52 18t-31 47l-97 307h-508l-96 -307q-8 -28 -32 -46.5t-54 -18.5q-36 0 -61 25t-25 61zM399 518h422l-207 662h-8zM516 1614q0 11 6 26l90 238 q18 47 72 47q34 0 57 -23t23 -57q0 -23 -14 -47l-115 -211q-18 -35 -57 -35q-25 0 -43.5 18.5t-18.5 43.5z" />
<glyph unicode="&#xc2;" horiz-adv-x="1220" d="M88 70q0 17 8 41l412 1255q20 68 84 68h37q64 0 84 -68l411 -1260q9 -22 9 -36q0 -36 -25.5 -61t-63.5 -25q-30 0 -52 18t-31 47l-97 307h-508l-96 -307q-8 -28 -32 -46.5t-54 -18.5q-36 0 -61 25t-25 61zM336 1608q0 19 14 39l144 206q25 35 49 52.5t67 17.5t68 -17.5 t49 -52.5l143 -206q15 -21 15 -39q0 -22 -17 -39t-39 -17q-28 0 -51 23l-168 182l-168 -182q-23 -23 -51 -23q-22 0 -38.5 17t-16.5 39zM399 518h422l-207 662h-8z" />
<glyph unicode="&#xc3;" horiz-adv-x="1220" d="M88 70q0 17 8 41l412 1255q20 68 84 68h37q64 0 84 -68l411 -1260q9 -22 9 -36q0 -36 -25.5 -61t-63.5 -25q-30 0 -52 18t-31 47l-97 307h-508l-96 -307q-8 -28 -32 -46.5t-54 -18.5q-36 0 -61 25t-25 61zM283 1659q0 17 8 33q30 67 76.5 107t107.5 40q51 0 101 -26.5 t91 -53t70 -26.5q28 0 46 13t36 42q21 37 58 37q25 0 42 -17.5t17 -42.5q0 -16 -8 -32q-30 -67 -77 -107.5t-108 -40.5q-40 0 -81 16.5t-68 37t-58 37t-55 16.5q-28 0 -46 -13t-36 -43q-21 -37 -57 -37q-25 0 -42 17.5t-17 42.5zM399 518h422l-207 662h-8z" />
<glyph unicode="&#xc4;" horiz-adv-x="1220" d="M88 70q0 17 8 41l412 1255q20 68 84 68h37q64 0 84 -68l411 -1260q9 -22 9 -36q0 -36 -25.5 -61t-63.5 -25q-30 0 -52 18t-31 47l-97 307h-508l-96 -307q-8 -28 -32 -46.5t-54 -18.5q-36 0 -61 25t-25 61zM313 1710q0 47 34 81t81 34t81 -34t34 -81t-34 -81t-81 -34 t-81 34t-34 81zM399 518h422l-207 662h-8zM678 1710q0 47 34 81t81 34t80.5 -34t33.5 -81t-33.5 -81t-80.5 -34t-81 34t-34 81z" />
<glyph unicode="&#xc5;" horiz-adv-x="1220" d="M88 70q0 17 8 41l412 1255q20 68 84 68h37q64 0 84 -68l411 -1260q9 -22 9 -36q0 -36 -25.5 -61t-63.5 -25q-30 0 -52 18t-31 47l-97 307h-508l-96 -307q-8 -28 -32 -46.5t-54 -18.5q-36 0 -61 25t-25 61zM399 518h422l-207 662h-8zM406 1741q0 94 57 148.5t149 54.5 t149.5 -54.5t57.5 -148.5q0 -95 -57 -149t-150 -54t-149.5 54t-56.5 149zM510 1741q0 -46 27.5 -73.5t74.5 -27.5t75 27.5t28 73.5t-28 73t-75 27t-74.5 -27t-27.5 -73z" />
<glyph unicode="&#xc6;" horiz-adv-x="1640" d="M88 70q0 17 8 41l422 1259q22 64 84 64h846q34 0 57 -23t23 -57t-23 -57t-57 -23h-709l156 -463h508q34 0 57 -23t23 -57t-23 -57t-57 -23h-461l150 -491h356q34 0 57 -23t23 -57t-23 -57t-57 -23h-408q-64 0 -84 66l-92 290h-508l-96 -307q-8 -28 -32 -46.5t-54 -18.5 q-35 0 -60.5 25.5t-25.5 60.5zM399 518h422l-207 647h-8z" />
<glyph unicode="&#xc7;" horiz-adv-x="1095" d="M143 477v479q0 230 120.5 362t354.5 132q279 0 396 -221q10 -20 10 -37q0 -34 -24 -58t-58 -24q-46 0 -68 35q-45 69 -103 104t-153 35q-159 0 -230 -88t-71 -260v-438q0 -172 71 -260t230 -88q79 0 145 36t109 101q30 47 74 47q34 0 58 -24t24 -58q0 -20 -14 -45 q-121 -211 -371 -221l-29 -97q32 7 64 7q72 0 117 -38.5t45 -121.5q0 -61 -33 -100t-78 -52.5t-102 -13.5q-79 0 -154 27q-37 13 -37 47q0 23 14 38t35 15q9 0 17 -2q74 -17 116 -17q60 0 78.5 14.5t18.5 43.5q0 59 -80 59q-20 0 -48 -6t-40 -6q-16 0 -28 11.5t-9 29.5 l25 166q-193 23 -292.5 151t-99.5 336z" />
<glyph unicode="&#xc8;" horiz-adv-x="1054" d="M195 86v1260q0 37 26.5 62.5t65.5 25.5h575q34 0 57 -23t23 -57t-23 -57t-57 -23h-493v-463h448q34 0 57 -23t23 -57t-23 -57t-57 -23h-448v-491h493q34 0 57 -23t23 -57t-23 -57t-57 -23h-581q-35 0 -60.5 25.5t-25.5 60.5zM416 1845q0 34 23 57t57 23q53 0 71 -47 l90 -238q7 -18 7 -26q0 -25 -18.5 -43.5t-43.5 -18.5q-39 0 -57 35l-115 211q-14 24 -14 47z" />
<glyph unicode="&#xc9;" horiz-adv-x="1054" d="M195 86v1260q0 37 26.5 62.5t65.5 25.5h575q34 0 57 -23t23 -57t-23 -57t-57 -23h-493v-463h448q34 0 57 -23t23 -57t-23 -57t-57 -23h-448v-491h493q34 0 57 -23t23 -57t-23 -57t-57 -23h-581q-35 0 -60.5 25.5t-25.5 60.5zM506 1614q0 11 6 26l90 238q18 47 72 47 q34 0 57 -23t23 -57q0 -21 -15 -47l-114 -211q-18 -35 -58 -35q-25 0 -43 18.5t-18 43.5z" />
<glyph unicode="&#xca;" horiz-adv-x="1054" d="M195 86v1260q0 37 26.5 62.5t65.5 25.5h575q34 0 57 -23t23 -57t-23 -57t-57 -23h-493v-463h448q34 0 57 -23t23 -57t-23 -57t-57 -23h-448v-491h493q34 0 57 -23t23 -57t-23 -57t-57 -23h-581q-35 0 -60.5 25.5t-25.5 60.5zM281 1608q0 19 14 39l143 206q24 35 49 52.5 t68 17.5t68 -17.5t49 -52.5l143 -206q14 -20 14 -39q0 -22 -16.5 -39t-38.5 -17q-28 0 -51 23l-168 182l-168 -182q-23 -23 -51 -23q-22 0 -38.5 17t-16.5 39z" />
<glyph unicode="&#xcb;" horiz-adv-x="1054" d="M195 86v1260q0 37 26.5 62.5t65.5 25.5h575q34 0 57 -23t23 -57t-23 -57t-57 -23h-493v-463h448q34 0 57 -23t23 -57t-23 -57t-57 -23h-448v-491h493q34 0 57 -23t23 -57t-23 -57t-57 -23h-581q-35 0 -60.5 25.5t-25.5 60.5zM268 1710q0 47 34 81t81 34t81 -34t34 -81 t-34 -81t-81 -34t-81 34t-34 81zM633 1710q0 47 34 81t81 34t80.5 -34t33.5 -81t-33.5 -81t-80.5 -34t-81 34t-34 81z" />
<glyph unicode="&#xcc;" horiz-adv-x="563" d="M100 1845q0 34 23 57t57 23q54 0 72 -47l90 -238q6 -15 6 -26q0 -25 -18 -43.5t-43 -18.5q-40 0 -58 35l-114 211q-15 26 -15 47zM195 70v1292q0 37 25.5 62.5t60.5 25.5q36 0 62 -25t26 -63v-1292q0 -35 -26.5 -60.5t-61.5 -25.5t-60.5 25.5t-25.5 60.5z" />
<glyph unicode="&#xcd;" horiz-adv-x="563" d="M182 1614q0 11 6 26l91 238q18 47 71 47q34 0 57 -23t23 -57q0 -23 -14 -47l-115 -211q-18 -35 -57 -35q-25 0 -43.5 18.5t-18.5 43.5zM195 70v1292q0 37 25.5 62.5t60.5 25.5q36 0 62 -25t26 -63v-1292q0 -35 -26.5 -60.5t-61.5 -25.5t-60.5 25.5t-25.5 60.5z" />
<glyph unicode="&#xce;" horiz-adv-x="563" d="M12 1608q0 18 15 39l143 206q24 35 49 52.5t68 17.5t67 -17.5t49 -52.5l144 -206q14 -20 14 -39q0 -22 -16.5 -39t-38.5 -17q-28 0 -51 23l-168 182l-168 -182q-23 -23 -51 -23q-22 0 -39 17t-17 39zM195 70v1292q0 37 25.5 62.5t60.5 25.5q36 0 62 -25t26 -63v-1292 q0 -35 -26.5 -60.5t-61.5 -25.5t-60.5 25.5t-25.5 60.5z" />
<glyph unicode="&#xcf;" horiz-adv-x="563" d="M-12 1710q0 47 33.5 81t80.5 34t81 -34t34 -81t-34 -81t-81 -34t-80.5 34t-33.5 81zM195 70v1292q0 37 25.5 62.5t60.5 25.5q36 0 62 -25t26 -63v-1292q0 -35 -26.5 -60.5t-61.5 -25.5t-60.5 25.5t-25.5 60.5zM352 1710q0 47 34 81t81 34t81 -34t34 -81t-34 -81t-81 -34 t-81 34t-34 81z" />
<glyph unicode="&#xd0;" horiz-adv-x="1327" d="M76 737q0 29 20.5 50.5t48.5 21.5h74v537q0 37 25.5 62.5t60.5 25.5h354q254 0 393.5 -178t139.5 -535q0 -329 -135 -525t-350 -196h-402q-35 0 -60.5 25.5t-25.5 60.5v582h-74q-28 0 -48.5 20.5t-20.5 48.5zM393 160h238q77 0 137.5 21.5t102 62t70 91.5t44.5 117 t22.5 132t6.5 143q0 85 -9.5 158t-35 147t-67 125.5t-111 84t-160.5 32.5h-238v-465h289q29 0 50.5 -21.5t21.5 -50.5q0 -28 -22.5 -48.5t-55.5 -20.5h-283v-508z" />
<glyph unicode="&#xd1;" horiz-adv-x="1366" d="M195 63v1307q0 34 22.5 57t54.5 23q44 0 72 -45l657 -1053h11v1018q0 34 23 57t57 23t56.5 -23t22.5 -57v-1304q0 -35 -27 -58.5t-63 -23.5q-52 0 -77 43l-639 1036h-11v-1000q0 -34 -23 -56.5t-57 -22.5t-56.5 22.5t-22.5 56.5zM367 1659q0 17 8 33q30 67 76.5 107 t107.5 40q51 0 101 -26.5t91 -53t70 -26.5q28 0 46 13t36 42q21 37 58 37q25 0 42 -17.5t17 -42.5q0 -16 -8 -32q-30 -67 -77 -107.5t-108 -40.5q-40 0 -81 16.5t-68 37t-58 37t-55 16.5q-28 0 -46 -13t-36 -43q-21 -37 -57 -37q-25 0 -42 17.5t-17 42.5z" />
<glyph unicode="&#xd2;" horiz-adv-x="1236" d="M143 477v479q0 230 120.5 362t354.5 132t355 -132t121 -362v-479q0 -230 -121 -361.5t-355 -131.5t-354.5 131.5t-120.5 361.5zM317 498q0 -173 70.5 -260.5t230.5 -87.5t231 88t71 260v438q0 172 -71 260t-231 88t-230.5 -87.5t-70.5 -260.5v-438zM438 1845q0 34 23 57 t57 23q54 0 72 -47l90 -238q6 -15 6 -26q0 -25 -18 -43.5t-43 -18.5q-40 0 -58 35l-114 211q-15 26 -15 47z" />
<glyph unicode="&#xd3;" horiz-adv-x="1236" d="M143 477v479q0 230 120.5 362t354.5 132t355 -132t121 -362v-479q0 -230 -121 -361.5t-355 -131.5t-354.5 131.5t-120.5 361.5zM317 498q0 -173 70.5 -260.5t230.5 -87.5t231 88t71 260v438q0 172 -71 260t-231 88t-230.5 -87.5t-70.5 -260.5v-438zM567 1614q0 11 6 26 l91 238q18 47 71 47q34 0 57 -23t23 -57q0 -23 -14 -47l-115 -211q-18 -35 -57 -35q-25 0 -43.5 18.5t-18.5 43.5z" />
<glyph unicode="&#xd4;" horiz-adv-x="1236" d="M143 477v479q0 230 120.5 362t354.5 132t355 -132t121 -362v-479q0 -230 -121 -361.5t-355 -131.5t-354.5 131.5t-120.5 361.5zM317 498q0 -173 70.5 -260.5t230.5 -87.5t231 88t71 260v438q0 172 -71 260t-231 88t-230.5 -87.5t-70.5 -260.5v-438zM356 1608q0 18 15 39 l143 206q24 35 49 52.5t68 17.5t68 -17.5t49 -52.5l143 -206q14 -20 14 -39q0 -22 -16.5 -39t-38.5 -17q-28 0 -51 23l-168 182l-168 -182q-23 -23 -51 -23q-22 0 -39 17t-17 39z" />
<glyph unicode="&#xd5;" horiz-adv-x="1236" d="M143 477v479q0 230 120.5 362t354.5 132t355 -132t121 -362v-479q0 -230 -121 -361.5t-355 -131.5t-354.5 131.5t-120.5 361.5zM299 1659q0 17 8 33q30 66 77 106.5t108 40.5q51 0 101 -26.5t91 -53t70 -26.5q28 0 46 13t36 42q21 37 57 37q25 0 42 -17.5t17 -42.5 q0 -16 -8 -32q-67 -148 -184 -148q-40 0 -81 16.5t-68 37t-58 37t-55 16.5q-28 0 -46 -13t-36 -43q-21 -37 -58 -37q-25 0 -42 17.5t-17 42.5zM317 498q0 -173 70.5 -260.5t230.5 -87.5t231 88t71 260v438q0 172 -71 260t-231 88t-230.5 -87.5t-70.5 -260.5v-438z" />
<glyph unicode="&#xd6;" horiz-adv-x="1236" d="M143 477v479q0 230 120.5 362t354.5 132t355 -132t121 -362v-479q0 -230 -121 -361.5t-355 -131.5t-354.5 131.5t-120.5 361.5zM317 498q0 -173 70.5 -260.5t230.5 -87.5t231 88t71 260v438q0 172 -71 260t-231 88t-230.5 -87.5t-70.5 -260.5v-438zM330 1710 q0 47 33.5 81t80.5 34t81 -34t34 -81t-34 -81t-81 -34t-80.5 34t-33.5 81zM694 1710q0 47 34 81t81 34t81 -34t34 -81t-34 -81t-81 -34t-81 34t-34 81z" />
<glyph unicode="&#xd7;" horiz-adv-x="983" d="M98 287q0 28 29 57l260 260l-262 262q-27 24 -27 60q0 31 21.5 52t52.5 21q29 0 59 -30l261 -260l262 260q30 30 59 30q31 0 52.5 -21t21.5 -52q0 -36 -27 -60l-264 -262l262 -260q29 -29 29 -57q0 -31 -21.5 -52.5t-52.5 -21.5q-28 0 -59 27l-262 260l-261 -260 q-31 -27 -59 -27q-31 0 -52.5 21.5t-21.5 52.5z" />
<glyph unicode="&#xd8;" horiz-adv-x="1236" d="M143 477v479q0 230 120.5 362t354.5 132q122 0 209 -37l27 64q19 47 59 47q28 0 46 -18t18 -46q0 -10 -4 -22l-37 -88q158 -125 158 -394v-479q0 -230 -121 -361.5t-355 -131.5q-124 0 -219 36l-26 -65q-17 -45 -62 -45q-26 0 -43.5 17.5t-17.5 43.5q0 14 6 29l35 88 q-148 127 -148 389zM317 498q0 -147 48 -230l399 989q-66 27 -146 27q-160 0 -230.5 -87.5t-70.5 -260.5v-438zM463 178q60 -28 155 -28q160 0 231 88t71 260v438q0 147 -54 238z" />
<glyph unicode="&#xd9;" horiz-adv-x="1323" d="M195 451v915q0 35 25.5 59.5t60.5 24.5q37 0 62.5 -25.5t25.5 -62.5v-891q0 -76 13.5 -132t46 -100t90.5 -66.5t143 -22.5t143 22.5t90 66.5t45.5 100t13.5 132v895q0 35 25.5 59.5t60.5 24.5q37 0 62.5 -25.5t25.5 -62.5v-911q0 -226 -118 -346.5t-348 -120.5 t-348.5 120.5t-118.5 346.5zM494 1845q0 34 22.5 57t56.5 23q54 0 72 -47l90 -238q6 -15 6 -26q0 -25 -18 -43.5t-43 -18.5q-39 0 -57 35l-115 211q-14 24 -14 47z" />
<glyph unicode="&#xda;" horiz-adv-x="1323" d="M195 451v915q0 35 25.5 59.5t60.5 24.5q37 0 62.5 -25.5t25.5 -62.5v-891q0 -76 13.5 -132t46 -100t90.5 -66.5t143 -22.5t143 22.5t90 66.5t45.5 100t13.5 132v895q0 35 25.5 59.5t60.5 24.5q37 0 62.5 -25.5t25.5 -62.5v-911q0 -226 -118 -346.5t-348 -120.5 t-348.5 120.5t-118.5 346.5zM612 1614q0 11 6 26l91 238q18 47 71 47q34 0 57 -23t23 -57q0 -23 -14 -47l-115 -211q-18 -35 -57 -35q-25 0 -43.5 18.5t-18.5 43.5z" />
<glyph unicode="&#xdb;" horiz-adv-x="1323" d="M195 451v915q0 35 25.5 59.5t60.5 24.5q37 0 62.5 -25.5t25.5 -62.5v-891q0 -76 13.5 -132t46 -100t90.5 -66.5t143 -22.5t143 22.5t90 66.5t45.5 100t13.5 132v895q0 35 25.5 59.5t60.5 24.5q37 0 62.5 -25.5t25.5 -62.5v-911q0 -226 -118 -346.5t-348 -120.5 t-348.5 120.5t-118.5 346.5zM397 1608q0 18 15 39l143 206q24 35 49 52.5t68 17.5t67 -17.5t49 -52.5l144 -206q14 -20 14 -39q0 -22 -16.5 -39t-38.5 -17q-28 0 -51 23l-168 182l-168 -182q-23 -23 -51 -23q-22 0 -39 17t-17 39z" />
<glyph unicode="&#xdc;" horiz-adv-x="1323" d="M195 451v915q0 35 25.5 59.5t60.5 24.5q37 0 62.5 -25.5t25.5 -62.5v-891q0 -76 13.5 -132t46 -100t90.5 -66.5t143 -22.5t143 22.5t90 66.5t45.5 100t13.5 132v895q0 35 25.5 59.5t60.5 24.5q37 0 62.5 -25.5t25.5 -62.5v-911q0 -226 -118 -346.5t-348 -120.5 t-348.5 120.5t-118.5 346.5zM373 1710q0 47 33.5 81t80.5 34t81 -34t34 -81t-34 -81t-81 -34t-80.5 34t-33.5 81zM737 1710q0 47 34 81t81 34t81 -34t34 -81t-34 -81t-81 -34t-81 34t-34 81z" />
<glyph unicode="&#xdd;" horiz-adv-x="1153" d="M102 1364q0 35 25.5 60.5t60.5 25.5q28 0 50.5 -15.5t33.5 -41.5l299 -676h11l301 680q10 25 33 39t51 14q37 0 62.5 -26.5t25.5 -63.5q0 -17 -8 -37l-383 -791v-460q0 -37 -24.5 -62.5t-61.5 -25.5t-63 25.5t-26 62.5v460l-378 795q-9 21 -9 37zM502 1614q0 11 6 26 l90 238q18 47 72 47q34 0 57 -23t23 -57q0 -21 -15 -47l-114 -211q-18 -35 -58 -35q-25 0 -43 18.5t-18 43.5z" />
<glyph unicode="&#xde;" horiz-adv-x="1179" d="M195 61v1301q0 37 25.5 62.5t60.5 25.5q36 0 62 -25t26 -63v-137h213q120 0 205.5 -20.5t151.5 -70.5t99 -140t33 -222q0 -233 -121.5 -345t-347.5 -112h-233v-254q0 -35 -25 -56t-63 -21q-36 0 -61 21.5t-25 55.5zM369 475h235q152 0 220.5 74.5t68.5 230.5 q0 161 -71.5 223t-246.5 62h-206v-590z" />
<glyph unicode="&#xdf;" horiz-adv-x="1224" d="M164 66v1077q0 185 113 295t313 110q196 0 313 -92t117 -260q0 -107 -41.5 -169.5t-110.5 -100.5q93 -26 151 -104t58 -201v-213q0 -186 -112.5 -297t-331.5 -111h-135q-30 0 -51 22.5t-21 53.5t21 53.5t51 22.5h135q82 0 138.5 20t86.5 58t42.5 84t12.5 108v166 q0 136 -76 196t-225 60h-37q-31 0 -53 22.5t-22 53.5t22 53t53 22h37q244 0 244 201t-266 201q-71 0 -123.5 -19t-82 -53.5t-43 -75.5t-13.5 -90v-1093q0 -34 -24 -58t-58 -24t-58 24t-24 58z" />
<glyph unicode="&#xe0;" horiz-adv-x="1069" d="M111 307q0 80 28.5 146.5t78 111.5t112 78.5t136.5 52t144.5 27t141.5 8.5v68q0 192 -238 192q-120 0 -242 -49q-20 -8 -34 -8q-29 0 -50.5 21.5t-21.5 50.5q0 39 39 63q47 31 130 52.5t179 21.5q401 0 401 -379v-713q0 -28 -20 -47.5t-49 -19.5q-27 0 -45 16.5t-23 44.5 l-12 74q-114 -135 -307 -135q-162 0 -255 90.5t-93 232.5zM274 307q0 -89 60.5 -139.5t150.5 -50.5q101 0 173.5 49.5t95.5 112.5v321q-59 0 -113 -5.5t-109.5 -18t-100.5 -35t-81 -53.5t-56 -77.5t-20 -103.5zM369 1538q0 34 23 57t57 23q53 0 71 -47l90 -238q6 -15 6 -26 q0 -25 -18 -43.5t-43 -18.5q-39 0 -57 35l-115 211q-14 25 -14 47z" />
<glyph unicode="&#xe1;" horiz-adv-x="1069" d="M111 307q0 80 28.5 146.5t78 111.5t112 78.5t136.5 52t144.5 27t141.5 8.5v68q0 192 -238 192q-120 0 -242 -49q-20 -8 -34 -8q-29 0 -50.5 21.5t-21.5 50.5q0 39 39 63q47 31 130 52.5t179 21.5q401 0 401 -379v-713q0 -28 -20 -47.5t-49 -19.5q-27 0 -45 16.5t-23 44.5 l-12 74q-114 -135 -307 -135q-162 0 -255 90.5t-93 232.5zM274 307q0 -89 60.5 -139.5t150.5 -50.5q101 0 173.5 49.5t95.5 112.5v321q-59 0 -113 -5.5t-109.5 -18t-100.5 -35t-81 -53.5t-56 -77.5t-20 -103.5zM457 1307q0 11 6 26l90 238q18 47 72 47q34 0 57 -23t23 -57 q0 -21 -15 -47l-115 -211q-18 -35 -57 -35q-25 0 -43 18.5t-18 43.5z" />
<glyph unicode="&#xe2;" horiz-adv-x="1069" d="M111 307q0 80 28.5 146.5t78 111.5t112 78.5t136.5 52t144.5 27t141.5 8.5v68q0 192 -238 192q-120 0 -242 -49q-20 -8 -34 -8q-29 0 -50.5 21.5t-21.5 50.5q0 39 39 63q47 31 130 52.5t179 21.5q401 0 401 -379v-713q0 -28 -20 -47.5t-49 -19.5q-27 0 -45 16.5t-23 44.5 l-12 74q-114 -135 -307 -135q-162 0 -255 90.5t-93 232.5zM260 1300q0 19 14 39l144 207q24 35 49 52.5t68 17.5t67 -17.5t49 -52.5l144 -207q14 -20 14 -39q0 -22 -16.5 -38.5t-38.5 -16.5q-29 0 -52 23l-167 182l-168 -182q-23 -23 -52 -23q-22 0 -38.5 16.5t-16.5 38.5z M274 307q0 -89 60.5 -139.5t150.5 -50.5q101 0 173.5 49.5t95.5 112.5v321q-59 0 -113 -5.5t-109.5 -18t-100.5 -35t-81 -53.5t-56 -77.5t-20 -103.5z" />
<glyph unicode="&#xe3;" horiz-adv-x="1069" d="M111 307q0 80 28.5 146.5t78 111.5t112 78.5t136.5 52t144.5 27t141.5 8.5v68q0 192 -238 192q-120 0 -242 -49q-20 -8 -34 -8q-29 0 -50.5 21.5t-21.5 50.5q0 39 39 63q47 31 130 52.5t179 21.5q401 0 401 -379v-713q0 -28 -20 -47.5t-49 -19.5q-27 0 -45 16.5t-23 44.5 l-12 74q-114 -135 -307 -135q-162 0 -255 90.5t-93 232.5zM207 1352q0 16 8 32q67 148 184 148q51 0 101.5 -27t91.5 -53.5t70 -26.5q28 0 45 13t36 43q21 37 58 37q25 0 42 -17.5t17 -42.5q0 -17 -8 -33q-30 -67 -76.5 -107t-107.5 -40q-51 0 -101 26.5t-91 53t-70 26.5 q-28 0 -46 -13t-36 -42q-21 -37 -58 -37q-25 0 -42 17.5t-17 42.5zM274 307q0 -89 60.5 -139.5t150.5 -50.5q101 0 173.5 49.5t95.5 112.5v321q-59 0 -113 -5.5t-109.5 -18t-100.5 -35t-81 -53.5t-56 -77.5t-20 -103.5z" />
<glyph unicode="&#xe4;" horiz-adv-x="1069" d="M111 307q0 80 28.5 146.5t78 111.5t112 78.5t136.5 52t144.5 27t141.5 8.5v68q0 192 -238 192q-120 0 -242 -49q-20 -8 -34 -8q-29 0 -50.5 21.5t-21.5 50.5q0 39 39 63q47 31 130 52.5t179 21.5q401 0 401 -379v-713q0 -28 -20 -47.5t-49 -19.5q-27 0 -45 16.5t-23 44.5 l-12 74q-114 -135 -307 -135q-162 0 -255 90.5t-93 232.5zM238 1403q0 47 33.5 81t80.5 34t81 -34t34 -81t-34 -81t-81 -34t-80.5 34t-33.5 81zM274 307q0 -89 60.5 -139.5t150.5 -50.5q101 0 173.5 49.5t95.5 112.5v321q-59 0 -113 -5.5t-109.5 -18t-100.5 -35t-81 -53.5 t-56 -77.5t-20 -103.5zM602 1403q0 47 34 81t81 34t80.5 -34t33.5 -81t-33.5 -81t-80.5 -34t-81 34t-34 81z" />
<glyph unicode="&#xe5;" horiz-adv-x="1069" d="M111 307q0 80 28.5 146.5t78 111.5t112 78.5t136.5 52t144.5 27t141.5 8.5v68q0 192 -238 192q-120 0 -242 -49q-20 -8 -34 -8q-29 0 -50.5 21.5t-21.5 50.5q0 39 39 63q47 31 130 52.5t179 21.5q401 0 401 -379v-713q0 -28 -20 -47.5t-49 -19.5q-27 0 -45 16.5t-23 44.5 l-12 74q-114 -135 -307 -135q-162 0 -255 90.5t-93 232.5zM274 307q0 -89 60.5 -139.5t150.5 -50.5q101 0 173.5 49.5t95.5 112.5v321q-59 0 -113 -5.5t-109.5 -18t-100.5 -35t-81 -53.5t-56 -77.5t-20 -103.5zM328 1434q0 94 57.5 148t149.5 54t149 -54t57 -148 q0 -95 -56.5 -149t-149.5 -54t-150 54t-57 149zM432 1434q0 -46 28 -73.5t75 -27.5t74.5 27.5t27.5 73.5t-27.5 73t-74.5 27t-75 -27t-28 -73z" />
<glyph unicode="&#xe6;" horiz-adv-x="1652" d="M111 307q0 80 28.5 146t78 111t112 78.5t136.5 52t144.5 27.5t141.5 9v68q0 192 -238 192q-120 0 -242 -49q-20 -8 -34 -8q-29 0 -50.5 21.5t-21.5 50.5q0 39 39 63q47 31 130 52.5t179 21.5q120 0 198.5 -33.5t131.5 -101.5q109 135 309 135q202 0 299.5 -110.5 t97.5 -315.5v-139q0 -30 -21.5 -51t-53.5 -21h-560v-168q0 -91 59.5 -147t188.5 -56q80 0 132.5 16t107.5 50q22 14 45 14q32 0 51 -21t19 -53t-31 -57q-51 -40 -136 -70t-188 -30q-256 0 -350 161q-67 -81 -149.5 -121t-204.5 -40q-162 0 -255 90.5t-93 232.5zM274 307 q0 -89 60.5 -139.5t150.5 -50.5q102 0 174.5 45t94.5 106v332q-70 0 -134 -8t-129 -28.5t-111.5 -52.5t-76 -84.5t-29.5 -119.5zM915 641h476v64q0 147 -55.5 216.5t-182.5 69.5t-182.5 -69.5t-55.5 -216.5v-64z" />
<glyph unicode="&#xe7;" horiz-adv-x="921" d="M113 410v307q0 202 102.5 314t306.5 112q215 0 320 -139q16 -24 16 -48q0 -29 -21.5 -50t-52.5 -21t-59 30q-70 76 -203 76q-132 0 -189 -69t-57 -217v-283q0 -148 57 -217.5t189 -69.5q77 0 120 18t85 58q29 29 57 29q31 0 52.5 -21.5t21.5 -52.5q0 -21 -18 -47 q-42 -59 -118.5 -95t-176.5 -40l-29 -95q32 7 64 7q72 0 116.5 -38.5t44.5 -121.5q0 -61 -33 -100t-78 -52.5t-102 -13.5q-78 0 -153 27q-37 13 -37 47q0 23 14 38t35 15q8 0 16 -2q74 -17 117 -17q60 0 78 14.5t18 43.5q0 59 -79 59q-20 0 -48 -6t-40 -6q-16 0 -28 11.5 t-9 29.5l24 166q-161 23 -242 132t-81 288z" />
<glyph unicode="&#xe8;" d="M113 373v344q0 200 101.5 313t299.5 113q202 0 299.5 -110.5t97.5 -315.5v-139q0 -30 -21.5 -51t-53.5 -21h-560v-168q0 -91 59.5 -147t188.5 -56q80 0 132.5 16t107.5 50q22 14 45 14q32 0 51 -21t19 -53t-31 -57q-51 -40 -136 -70t-188 -30q-203 0 -307 101.5 t-104 287.5zM276 641h476v64q0 147 -55.5 216.5t-182.5 69.5t-182.5 -69.5t-55.5 -216.5v-64zM365 1538q0 34 22.5 57t56.5 23q54 0 72 -47l90 -238q6 -15 6 -26q0 -25 -18 -43.5t-43 -18.5q-39 0 -57 35l-115 211q-14 25 -14 47z" />
<glyph unicode="&#xe9;" d="M113 373v344q0 200 101.5 313t299.5 113q202 0 299.5 -110.5t97.5 -315.5v-139q0 -30 -21.5 -51t-53.5 -21h-560v-168q0 -91 59.5 -147t188.5 -56q80 0 132.5 16t107.5 50q22 14 45 14q32 0 51 -21t19 -53t-31 -57q-51 -40 -136 -70t-188 -30q-203 0 -307 101.5 t-104 287.5zM276 641h476v64q0 147 -55.5 216.5t-182.5 69.5t-182.5 -69.5t-55.5 -216.5v-64zM436 1307q0 11 6 26l90 238q18 47 72 47q34 0 57 -23t23 -57q0 -22 -14 -47l-115 -211q-18 -35 -57 -35q-25 0 -43.5 18.5t-18.5 43.5z" />
<glyph unicode="&#xea;" d="M113 373v344q0 200 101.5 313t299.5 113q202 0 299.5 -110.5t97.5 -315.5v-139q0 -30 -21.5 -51t-53.5 -21h-560v-168q0 -91 59.5 -147t188.5 -56q80 0 132.5 16t107.5 50q22 14 45 14q32 0 51 -21t19 -53t-31 -57q-51 -40 -136 -70t-188 -30q-203 0 -307 101.5 t-104 287.5zM240 1300q0 19 14 39l143 207q24 35 49 52.5t68 17.5t68 -17.5t49 -52.5l143 -207q14 -20 14 -39q0 -22 -16.5 -38.5t-38.5 -16.5q-28 0 -51 23l-168 182l-168 -182q-23 -23 -51 -23q-22 0 -38.5 16.5t-16.5 38.5zM276 641h476v64q0 147 -55.5 216.5 t-182.5 69.5t-182.5 -69.5t-55.5 -216.5v-64z" />
<glyph unicode="&#xeb;" d="M113 373v344q0 200 101.5 313t299.5 113q202 0 299.5 -110.5t97.5 -315.5v-139q0 -30 -21.5 -51t-53.5 -21h-560v-168q0 -91 59.5 -147t188.5 -56q80 0 132.5 16t107.5 50q22 14 45 14q32 0 51 -21t19 -53t-31 -57q-51 -40 -136 -70t-188 -30q-203 0 -307 101.5 t-104 287.5zM223 1403q0 47 34 81t81 34t81 -34t34 -81t-34 -81t-81 -34t-81 34t-34 81zM276 641h476v64q0 147 -55.5 216.5t-182.5 69.5t-182.5 -69.5t-55.5 -216.5v-64zM588 1403q0 47 33.5 81t80.5 34t81 -34t34 -81t-34 -81t-81 -34t-80.5 34t-33.5 81z" />
<glyph unicode="&#xec;" horiz-adv-x="501" d="M88 1538q0 34 23 57t57 23q54 0 72 -47l90 -238q6 -15 6 -26q0 -25 -18.5 -43.5t-43.5 -18.5q-39 0 -57 35l-115 211q-14 25 -14 47zM174 66v995q2 35 25 58.5t57 23.5t58 -24t24 -58v-995q0 -34 -24 -58t-58 -24t-58 24t-24 58z" />
<glyph unicode="&#xed;" horiz-adv-x="501" d="M174 66v995q2 35 25 58.5t57 23.5t58 -24t24 -58v-995q0 -34 -24 -58t-58 -24t-58 24t-24 58zM176 1307q0 11 6 26l90 238q18 47 72 47q34 0 57 -23t23 -57q0 -22 -14 -47l-115 -211q-18 -35 -57 -35q-25 0 -43.5 18.5t-18.5 43.5z" />
<glyph unicode="&#xee;" horiz-adv-x="501" d="M-18 1300q0 19 14 39l143 207q24 35 49 52.5t68 17.5t68 -17.5t49 -52.5l143 -207q14 -20 14 -39q0 -22 -16.5 -38.5t-38.5 -16.5q-28 0 -51 23l-168 182l-168 -182q-23 -23 -51 -23q-22 0 -38.5 16.5t-16.5 38.5zM174 66v995q2 35 25 58.5t57 23.5t58 -24t24 -58v-995 q0 -34 -24 -58t-58 -24t-58 24t-24 58z" />
<glyph unicode="&#xef;" horiz-adv-x="501" d="M-37 1403q0 47 34 81t81 34t81 -34t34 -81t-34 -81t-81 -34t-81 34t-34 81zM174 66v995q2 35 25 58.5t57 23.5t58 -24t24 -58v-995q0 -34 -24 -58t-58 -24t-58 24t-24 58zM328 1403q0 47 33.5 81t80.5 34t81 -34t34 -81t-34 -81t-81 -34t-80.5 34t-33.5 81z" />
<glyph unicode="&#xf0;" horiz-adv-x="1044" d="M113 389v217q0 192 105.5 299t303.5 107q151 0 250 -74q-3 184 -88 279l-115 -115q-17 -17 -43 -17q-28 0 -46.5 19t-18.5 47q0 27 24 51l82 86q-56 17 -114 17q-38 0 -92 -10.5t-66 -10.5q-28 0 -48 20t-20 48q0 49 49 67q81 31 179 31q135 0 227 -47l96 98q31 31 58 31 q28 0 47.5 -20t19.5 -48q0 -26 -31 -57l-79 -80q139 -145 139 -428v-510q0 -196 -103.5 -300.5t-306.5 -104.5q-199 0 -304 107t-105 298zM276 401q0 -137 59.5 -201.5t186.5 -64.5t186.5 64.5t59.5 201.5v193q0 137 -59 201.5t-187 64.5q-127 0 -186.5 -64.5t-59.5 -201.5 v-193z" />
<glyph unicode="&#xf1;" horiz-adv-x="1136" d="M164 66v1007q0 29 19.5 49.5t47.5 20.5q30 0 48.5 -18t21.5 -46l12 -92q21 23 49 46t70 50t97.5 43.5t113.5 16.5q173 0 256.5 -106.5t83.5 -278.5v-692q0 -34 -24 -58t-58 -24t-58 24t-24 58v653q0 140 -58 201t-173 61q-128 0 -260 -119v-796q0 -33 -24.5 -57.5 t-57.5 -24.5q-34 0 -58 24t-24 58zM236 1352q0 16 8 32q67 148 184 148q51 0 101 -27t91 -53.5t70 -26.5q28 0 46 13t36 43q21 37 57 37q25 0 42.5 -17.5t17.5 -42.5q0 -17 -8 -33q-30 -66 -77 -106.5t-108 -40.5q-51 0 -101 26.5t-91 53t-70 26.5q-28 0 -46 -13t-36 -42 q-21 -37 -57 -37q-25 0 -42 17.5t-17 42.5z" />
<glyph unicode="&#xf2;" horiz-adv-x="1044" d="M113 410v307q0 202 102.5 314t306.5 112q410 0 410 -426v-307q0 -426 -410 -426q-204 0 -306.5 112t-102.5 314zM276 422q0 -148 57 -217.5t189 -69.5t189 69.5t57 217.5v283q0 148 -57 217t-189 69t-189 -69t-57 -217v-283zM371 1538q0 34 23 57t57 23q53 0 71 -47 l90 -238q6 -15 6 -26q0 -25 -18 -43.5t-43 -18.5q-39 0 -57 35l-115 211q-14 25 -14 47z" />
<glyph unicode="&#xf3;" horiz-adv-x="1044" d="M113 410v307q0 202 102.5 314t306.5 112q410 0 410 -426v-307q0 -426 -410 -426q-204 0 -306.5 112t-102.5 314zM276 422q0 -148 57 -217.5t189 -69.5t189 69.5t57 217.5v283q0 148 -57 217t-189 69t-189 -69t-57 -217v-283zM455 1307q0 11 6 26l90 238q18 47 72 47 q34 0 56.5 -23t22.5 -57q0 -22 -14 -47l-115 -211q-18 -35 -57 -35q-25 0 -43 18.5t-18 43.5z" />
<glyph unicode="&#xf4;" horiz-adv-x="1044" d="M113 410v307q0 202 102.5 314t306.5 112q410 0 410 -426v-307q0 -426 -410 -426q-204 0 -306.5 112t-102.5 314zM252 1300q0 19 14 39l144 207q25 35 49 52.5t67 17.5t68 -17.5t49 -52.5l143 -207q15 -21 15 -39q0 -22 -17 -38.5t-39 -16.5q-28 0 -51 23l-168 182 l-168 -182q-23 -23 -51 -23q-22 0 -38.5 16.5t-16.5 38.5zM276 422q0 -148 57 -217.5t189 -69.5t189 69.5t57 217.5v283q0 148 -57 217t-189 69t-189 -69t-57 -217v-283z" />
<glyph unicode="&#xf5;" horiz-adv-x="1044" d="M113 410v307q0 202 102.5 314t306.5 112q410 0 410 -426v-307q0 -426 -410 -426q-204 0 -306.5 112t-102.5 314zM201 1352q0 16 8 32q67 148 184 148q51 0 101 -27t91 -53.5t70 -26.5q28 0 46 13t36 43q21 37 58 37q25 0 42 -17.5t17 -42.5q0 -17 -8 -33 q-30 -67 -76.5 -107t-107.5 -40q-40 0 -81 16.5t-68.5 36.5t-58.5 36.5t-55 16.5q-28 0 -46 -13t-36 -42q-21 -37 -57 -37q-25 0 -42 17.5t-17 42.5zM276 422q0 -148 57 -217.5t189 -69.5t189 69.5t57 217.5v283q0 148 -57 217t-189 69t-189 -69t-57 -217v-283z" />
<glyph unicode="&#xf6;" horiz-adv-x="1044" d="M113 410v307q0 202 102.5 314t306.5 112q410 0 410 -426v-307q0 -426 -410 -426q-204 0 -306.5 112t-102.5 314zM233 1403q0 47 34 81t81 34t81 -34t34 -81t-34 -81t-81 -34t-81 34t-34 81zM276 422q0 -148 57 -217.5t189 -69.5t189 69.5t57 217.5v283q0 148 -57 217 t-189 69t-189 -69t-57 -217v-283zM598 1403q0 47 34 81t81 34t80.5 -34t33.5 -81t-33.5 -81t-80.5 -34t-81 34t-34 81z" />
<glyph unicode="&#xf7;" d="M20 606q0 31 21.5 52.5t52.5 21.5h826q31 0 52 -21.5t21 -52.5t-22.5 -52.5t-57.5 -21.5h-819q-31 0 -52.5 21.5t-21.5 52.5zM377 285q0 59 32.5 94t98.5 35t98.5 -35t32.5 -94q0 -60 -32.5 -94.5t-98.5 -34.5t-98.5 34.5t-32.5 94.5zM377 930q0 59 32.5 94t98.5 35 t98.5 -35t32.5 -94q0 -60 -32.5 -94.5t-98.5 -34.5t-98.5 34.5t-32.5 94.5z" />
<glyph unicode="&#xf8;" horiz-adv-x="1044" d="M113 410v307q0 202 102.5 314t306.5 112q83 0 160 -23l25 60q15 37 53 37q25 0 42 -17.5t17 -42.5q0 -14 -6 -29l-25 -59q144 -106 144 -352v-307q0 -426 -410 -426q-88 0 -162 22l-22 -53q-18 -43 -57 -43q-23 0 -40.5 17t-17.5 40q0 13 8 33l23 59q-141 109 -141 351z M276 422q0 -136 43 -201l306 756q-41 14 -103 14q-132 0 -189 -69t-57 -217v-283zM418 150q44 -15 104 -15q132 0 189 69.5t57 217.5v283q0 132 -45 200z" />
<glyph unicode="&#xf9;" horiz-adv-x="1126" d="M150 1538q0 34 22.5 57t56.5 23q54 0 72 -47l90 -238q6 -15 6 -26q0 -25 -18 -43.5t-43 -18.5q-39 0 -57 35l-115 211q-14 25 -14 47zM154 369v696q0 32 24.5 55t57.5 23q34 0 57.5 -24t23.5 -58v-653q0 -140 58.5 -201.5t173.5 -61.5q128 0 260 119v801q0 32 24 55 t58 23t58 -24t24 -58v-1008q0 -29 -20 -49t-48 -20t-47 17.5t-22 45.5l-13 92q-21 -23 -48.5 -45.5t-70 -49.5t-97.5 -43.5t-113 -16.5q-173 0 -256.5 106.5t-83.5 278.5z" />
<glyph unicode="&#xfa;" horiz-adv-x="1126" d="M154 369v696q0 32 24.5 55t57.5 23q34 0 57.5 -24t23.5 -58v-653q0 -140 58.5 -201.5t173.5 -61.5q128 0 260 119v801q0 32 24 55t58 23t58 -24t24 -58v-1008q0 -29 -20 -49t-48 -20t-47 17.5t-22 45.5l-13 92q-21 -23 -48.5 -45.5t-70 -49.5t-97.5 -43.5t-113 -16.5 q-173 0 -256.5 106.5t-83.5 278.5zM496 1307q0 11 6 26l90 238q18 47 72 47q34 0 56.5 -23t22.5 -57q0 -22 -14 -47l-115 -211q-18 -35 -57 -35q-25 0 -43 18.5t-18 43.5z" />
<glyph unicode="&#xfb;" horiz-adv-x="1126" d="M154 369v696q0 32 24.5 55t57.5 23q34 0 57.5 -24t23.5 -58v-653q0 -140 58.5 -201.5t173.5 -61.5q128 0 260 119v801q0 32 24 55t58 23t58 -24t24 -58v-1008q0 -29 -20 -49t-48 -20t-47 17.5t-22 45.5l-13 92q-21 -23 -48.5 -45.5t-70 -49.5t-97.5 -43.5t-113 -16.5 q-173 0 -256.5 106.5t-83.5 278.5zM299 1300q0 19 14 39l144 207q25 35 49 52.5t67 17.5t68 -17.5t49 -52.5l144 -207q14 -20 14 -39q0 -22 -16.5 -38.5t-38.5 -16.5q-29 0 -52 23l-168 182l-167 -182q-23 -23 -52 -23q-22 0 -38.5 16.5t-16.5 38.5z" />
<glyph unicode="&#xfc;" horiz-adv-x="1126" d="M154 369v696q0 32 24.5 55t57.5 23q34 0 57.5 -24t23.5 -58v-653q0 -140 58.5 -201.5t173.5 -61.5q128 0 260 119v801q0 32 24 55t58 23t58 -24t24 -58v-1008q0 -29 -20 -49t-48 -20t-47 17.5t-22 45.5l-13 92q-21 -23 -48.5 -45.5t-70 -49.5t-97.5 -43.5t-113 -16.5 q-173 0 -256.5 106.5t-83.5 278.5zM283 1403q0 47 33.5 81t80.5 34t81 -34t34 -81t-34 -81t-81 -34t-80.5 34t-33.5 81zM647 1403q0 47 34 81t81 34t81 -34t34 -81t-34 -81t-81 -34t-81 34t-34 81z" />
<glyph unicode="&#xfd;" horiz-adv-x="987" d="M61 1065q0 32 24 55t56 23q63 0 84 -68l264 -882h9l264 882q21 68 84 68q32 0 56 -23t24 -55q0 -15 -8 -39l-437 -1393q-9 -28 -31.5 -45.5t-48.5 -17.5q-32 0 -55.5 24t-23.5 56q0 17 8 41l104 309q-40 0 -49 29l-315 997q-9 27 -9 39zM434 1307q0 11 6 26l90 238 q18 47 72 47q34 0 57 -23t23 -57q0 -22 -14 -47l-115 -211q-18 -35 -57 -35q-25 0 -43.5 18.5t-18.5 43.5z" />
<glyph unicode="&#xfe;" horiz-adv-x="1095" d="M164 -348v1818q0 36 24 59t58 23t58 -24t24 -58v-448q48 50 122 85.5t160 35.5q181 0 277 -111.5t96 -314.5v-307q0 -203 -96 -314.5t-277 -111.5q-87 0 -160.5 36.5t-121.5 88.5v-457q0 -34 -24 -58t-58 -24t-58 24t-24 58zM328 244q113 -109 245 -109q131 0 188.5 69.5 t57.5 217.5v283q0 147 -57.5 216.5t-188.5 69.5q-133 0 -245 -108v-639z" />
<glyph unicode="&#xff;" horiz-adv-x="987" d="M61 1065q0 32 24 55t56 23q63 0 84 -68l264 -882h9l264 882q21 68 84 68q32 0 56 -23t24 -55q0 -15 -8 -39l-437 -1393q-9 -28 -31.5 -45.5t-48.5 -17.5q-32 0 -55.5 24t-23.5 56q0 17 8 41l104 309q-40 0 -49 29l-315 997q-9 27 -9 39zM213 1403q0 47 34 81t81 34 t80.5 -34t33.5 -81t-33.5 -81t-80.5 -34t-81 34t-34 81zM578 1403q0 47 33.5 81t80.5 34t81 -34t34 -81t-34 -81t-81 -34t-80.5 34t-33.5 81z" />
<glyph unicode="&#x152;" horiz-adv-x="1779" d="M143 477v479q0 230 120.5 362t354.5 132q201 0 302 -107q0 39 26 65t66 26h575q34 0 57 -23t23 -57t-23 -57t-57 -23h-493v-463h448q34 0 57 -23t23 -57t-23 -57t-57 -23h-448v-491h493q34 0 57 -23t23 -57t-23 -57t-57 -23h-581q-35 0 -60.5 25.5t-25.5 60.5v10 q-112 -112 -302 -112q-234 0 -354.5 131.5t-120.5 361.5zM317 498q0 -173 70.5 -260.5t230.5 -87.5q155 0 228.5 79t73.5 236v487q0 163 -72.5 247.5t-229.5 84.5q-160 0 -230.5 -87.5t-70.5 -260.5v-438z" />
<glyph unicode="&#x153;" horiz-adv-x="1669" d="M113 410v307q0 202 102.5 314t306.5 112q221 0 332 -148q95 148 315 148q202 0 300 -110.5t98 -315.5v-139q0 -30 -22 -51t-54 -21h-559v-168q0 -91 59.5 -147t188.5 -56q80 0 132 16t107 50q22 14 45 14q32 0 51 -21t19 -53t-31 -57q-51 -40 -135.5 -70t-187.5 -30 q-229 0 -330 143q-110 -143 -328 -143q-204 0 -306.5 112t-102.5 314zM276 422q0 -148 57 -217.5t189 -69.5t189 69.5t57 217.5v283q0 148 -57 217t-189 69t-189 -69t-57 -217v-283zM932 641h475v64q0 147 -55.5 216.5t-182.5 69.5t-182 -69t-55 -217v-64z" />
<glyph unicode="&#x178;" horiz-adv-x="1153" d="M102 1364q0 35 25.5 60.5t60.5 25.5q28 0 50.5 -15.5t33.5 -41.5l299 -676h11l301 680q10 25 33 39t51 14q37 0 62.5 -26.5t25.5 -63.5q0 -17 -8 -37l-383 -791v-460q0 -37 -24.5 -62.5t-61.5 -25.5t-63 25.5t-26 62.5v460l-378 795q-9 21 -9 37zM279 1710q0 47 33.5 81 t80.5 34t81 -34t34 -81t-34 -81t-81 -34t-80.5 34t-33.5 81zM643 1710q0 47 34 81t81 34t80.5 -34t33.5 -81t-33.5 -81t-80.5 -34t-81 34t-34 81z" />
<glyph unicode="&#x2c6;" horiz-adv-x="937" d="M195 1300q0 19 14 39l143 207q24 35 49 52.5t68 17.5t68 -17.5t49 -52.5l143 -207q14 -20 14 -39q0 -22 -16.5 -38.5t-38.5 -16.5q-28 0 -51 23l-168 182l-168 -182q-23 -23 -51 -23q-22 0 -38.5 16.5t-16.5 38.5z" />
<glyph unicode="&#x2dc;" horiz-adv-x="825" d="M86 1352q0 16 8 32q30 67 77 107.5t108 40.5q51 0 101 -27t91 -53.5t70 -26.5q28 0 46 13t36 43q21 37 57 37q25 0 42 -17.5t17 -42.5q0 -17 -8 -33q-30 -67 -76.5 -107t-107.5 -40q-51 0 -101 26.5t-91 53t-70 26.5q-28 0 -46 -13t-36 -42q-21 -37 -58 -37 q-25 0 -42 17.5t-17 42.5z" />
<glyph unicode="&#x2000;" horiz-adv-x="972" />
<glyph unicode="&#x2001;" horiz-adv-x="1944" />
<glyph unicode="&#x2002;" horiz-adv-x="972" />
<glyph unicode="&#x2003;" horiz-adv-x="1944" />
<glyph unicode="&#x2004;" horiz-adv-x="648" />
<glyph unicode="&#x2005;" horiz-adv-x="486" />
<glyph unicode="&#x2006;" horiz-adv-x="324" />
<glyph unicode="&#x2007;" horiz-adv-x="324" />
<glyph unicode="&#x2008;" horiz-adv-x="243" />
<glyph unicode="&#x2009;" horiz-adv-x="388" />
<glyph unicode="&#x200a;" horiz-adv-x="108" />
<glyph unicode="&#x2010;" horiz-adv-x="661" d="M72 616q0 31 22 53.5t53 22.5h367q31 0 53.5 -22.5t22.5 -53.5t-22.5 -53t-53.5 -22h-367q-31 0 -53 22t-22 53z" />
<glyph unicode="&#x2011;" horiz-adv-x="661" d="M72 616q0 31 22 53.5t53 22.5h367q31 0 53.5 -22.5t22.5 -53.5t-22.5 -53t-53.5 -22h-367q-31 0 -53 22t-22 53z" />
<glyph unicode="&#x2012;" horiz-adv-x="661" d="M72 616q0 31 22 53.5t53 22.5h367q31 0 53.5 -22.5t22.5 -53.5t-22.5 -53t-53.5 -22h-367q-31 0 -53 22t-22 53z" />
<glyph unicode="&#x2013;" horiz-adv-x="1019" d="M72 616q0 31 22 53.5t53 22.5h725q31 0 53.5 -22.5t22.5 -53.5t-22.5 -53t-53.5 -22h-725q-31 0 -53 22t-22 53z" />
<glyph unicode="&#x2014;" horiz-adv-x="1628" d="M72 616q0 31 22 53.5t53 22.5h1336q31 0 53.5 -22.5t22.5 -53.5t-22.5 -53t-53.5 -22h-1336q-31 0 -53 22t-22 53z" />
<glyph unicode="&#x2018;" horiz-adv-x="481" d="M106 1120q0 20 7 37l116 391q18 60 76 60q31 0 53.5 -22.5t22.5 -53.5q0 -9 -4 -29l-84 -405q-6 -31 -31.5 -51.5t-60.5 -20.5q-41 0 -68 27.5t-27 66.5z" />
<glyph unicode="&#x2019;" horiz-adv-x="481" d="M106 1102q0 1 5 26l84 408q6 31 31.5 51.5t60.5 20.5q40 0 67 -28t27 -67q0 -21 -6 -36l-119 -400q-8 -23 -28 -37t-46 -14q-31 0 -53.5 22.5t-22.5 53.5z" />
<glyph unicode="&#x201a;" horiz-adv-x="481" d="M104 -260q0 12 2 18l87 416q6 31 30.5 51.5t59.5 20.5q41 0 68.5 -27.5t27.5 -66.5q0 -15 -8 -39l-115 -389q-8 -26 -28.5 -43t-47.5 -17q-31 0 -53.5 22.5t-22.5 53.5z" />
<glyph unicode="&#x201c;" horiz-adv-x="851" d="M106 1120q0 20 7 37l116 391q18 60 76 60q31 0 53.5 -22.5t22.5 -53.5q0 -9 -4 -29l-84 -405q-6 -31 -31.5 -51.5t-60.5 -20.5q-41 0 -68 27.5t-27 66.5zM475 1120q0 22 6 37l119 399q8 23 28 37.5t46 14.5q31 0 53.5 -22.5t22.5 -53.5q0 -2 -5 -27l-83 -407 q-6 -31 -32 -51.5t-61 -20.5q-41 0 -67.5 27.5t-26.5 66.5z" />
<glyph unicode="&#x201d;" horiz-adv-x="851" d="M106 1102q0 1 5 26l84 408q6 31 31.5 51.5t60.5 20.5q40 0 67 -28t27 -67q0 -21 -6 -36l-119 -400q-8 -23 -28 -37t-46 -14q-31 0 -53.5 22.5t-22.5 53.5zM475 1102q0 8 4 28l84 406q6 31 31.5 51.5t60.5 20.5q41 0 68 -28t27 -67q0 -19 -7 -36l-116 -392 q-18 -59 -76 -59q-31 0 -53.5 22.5t-22.5 53.5z" />
<glyph unicode="&#x201e;" horiz-adv-x="851" d="M104 -260q0 12 2 18l87 416q6 31 31.5 51.5t60.5 20.5q41 0 67.5 -27.5t26.5 -66.5q0 -17 -8 -41l-115 -387q-8 -26 -28.5 -43t-47.5 -17q-31 0 -53.5 22.5t-22.5 53.5zM473 -260q0 12 2 18l86 416q6 31 31.5 51.5t60.5 20.5q41 0 68 -27.5t27 -66.5q0 -14 -9 -41 l-114 -387q-8 -26 -28.5 -43t-47.5 -17q-31 0 -53.5 22.5t-22.5 53.5z" />
<glyph unicode="&#x2022;" horiz-adv-x="835" d="M143 625q0 123 76 198.5t199 75.5t198.5 -75.5t75.5 -198.5t-75.5 -199t-198.5 -76t-199 76t-76 199z" />
<glyph unicode="&#x202f;" horiz-adv-x="388" />
<glyph unicode="&#x2039;" horiz-adv-x="737" d="M98 612q0 51 43 88l387 330q20 17 43 17q28 0 48 -20t20 -46t-27 -53l-295 -316l295 -315q27 -27 27 -53t-20 -46t-48 -20q-23 0 -43 17l-387 329q-43 37 -43 88z" />
<glyph unicode="&#x203a;" horiz-adv-x="737" d="M98 244q0 26 27 53l295 315l-295 316q-27 27 -27 53t20 46t48 20q23 0 43 -17l387 -330q43 -37 43 -88t-43 -88l-387 -329q-20 -17 -43 -17q-28 0 -48 20t-20 46z" />
<glyph unicode="&#x205f;" horiz-adv-x="486" />
<glyph unicode="&#x20ac;" horiz-adv-x="1230" d="M43 586q0 28 19 46.5t47 18.5h57v131h-57q-28 0 -47 19t-19 47t19 46.5t47 18.5h57v43q0 230 120.5 362t354.5 132q188 0 336 -82q51 -28 51 -76q0 -31 -23 -53t-57 -22q-15 0 -30 6q-153 61 -277 61q-159 0 -230 -88t-71 -260v-23h346q28 0 47 -18.5t19 -46.5t-19 -47 t-47 -19h-346v-131h346q28 0 47 -18.5t19 -46.5t-19 -47t-47 -19h-346v-22q0 -172 71 -260t230 -88q138 0 270 57q23 10 39 10q32 0 55 -23t23 -55q0 -49 -45 -69q-164 -86 -342 -86q-234 0 -354.5 131.5t-120.5 361.5v43h-57q-28 0 -47 19t-19 47z" />
<glyph unicode="&#x2122;" horiz-adv-x="1400" d="M72 1378q0 23 15.5 39.5t37.5 16.5h430q23 0 39 -16.5t16 -39.5q0 -22 -16 -37.5t-39 -15.5h-158v-608q0 -23 -17 -40.5t-40 -17.5t-40 17.5t-17 40.5v608h-158q-22 0 -37.5 15.5t-15.5 37.5zM690 713v682q0 22 14.5 36.5t36.5 14.5q33 0 50 -35l213 -436l213 436 q19 35 49 35q22 0 36.5 -14.5t14.5 -36.5v-682q0 -22 -15.5 -38t-37.5 -16t-38 16t-16 38v444h-8l-160 -321q-12 -27 -41 -27q-26 0 -38 27l-158 321h-8v-444q0 -22 -16 -38t-38 -16t-37.5 16t-15.5 38z" />
<glyph unicode="&#x25fc;" horiz-adv-x="1146" d="M0 0v1147h1147v-1147h-1147z" />
</font>
</defs>
</svg>
